<?xml version="1.0" encoding="UTF-8" standalone="no"?>
<!-- Created with Inkscape (http://www.inkscape.org/) -->

<svg
   xmlns:dc="http://purl.org/dc/elements/1.1/"
   xmlns:cc="http://creativecommons.org/ns#"
   xmlns:rdf="http://www.w3.org/1999/02/22-rdf-syntax-ns#"
   xmlns:svg="http://www.w3.org/2000/svg"
   xmlns="http://www.w3.org/2000/svg"
   xmlns:sodipodi="http://sodipodi.sourceforge.net/DTD/sodipodi-0.dtd"
   xmlns:inkscape="http://www.inkscape.org/namespaces/inkscape"
   width="297mm"
   height="210mm"
   viewBox="0 0 297 210"
   version="1.1"
   id="svg8"
   inkscape:version="0.92.4 (5da689c313, 2019-01-14)"
   sodipodi:docname="0003_numbers.svg">
  <defs
     id="defs2" />
  <sodipodi:namedview
     id="base"
     pagecolor="#ffffff"
     bordercolor="#666666"
     borderopacity="1.0"
     inkscape:pageopacity="0.0"
     inkscape:pageshadow="2"
     inkscape:zoom="2.9981328"
     inkscape:cx="680.03201"
     inkscape:cy="219.81142"
     inkscape:document-units="mm"
     inkscape:current-layer="layer1"
     showgrid="false"
     inkscape:window-width="1920"
     inkscape:window-height="1057"
     inkscape:window-x="-8"
     inkscape:window-y="-8"
     inkscape:window-maximized="1"
     objecttolerance="1" />
  <metadata
     id="metadata5">
    <rdf:RDF>
      <cc:Work
         rdf:about="">
        <dc:format>image/svg+xml</dc:format>
        <dc:type
           rdf:resource="http://purl.org/dc/dcmitype/StillImage" />
        <dc:title></dc:title>
      </cc:Work>
    </rdf:RDF>
  </metadata>
  <g
     inkscape:label="レイヤー 1"
     inkscape:groupmode="layer"
     id="layer1"
     transform="translate(0,-87)">
    <g
       id="g865"
       transform="matrix(0.57229307,0,0,0.57229307,-4.3184918,34.117725)">
      <text
         id="text817"
         y="199.14102"
         x="104.61706"
         style="font-style:normal;font-variant:normal;font-weight:normal;font-stretch:normal;font-size:113.38768768px;line-height:1.25;font-family:sans-serif;-inkscape-font-specification:'sans-serif, Normal';font-variant-ligatures:normal;font-variant-caps:normal;font-variant-numeric:normal;font-feature-settings:normal;text-align:start;letter-spacing:0px;word-spacing:0px;writing-mode:lr-tb;text-anchor:start;fill:#000000;fill-opacity:0.25098039;stroke:none;stroke-width:2.83470774"
         xml:space="preserve"><tspan
           style="font-style:normal;font-variant:normal;font-weight:normal;font-stretch:normal;font-size:113.38768768px;font-family:sans-serif;-inkscape-font-specification:'sans-serif, Normal';font-variant-ligatures:normal;font-variant-caps:normal;font-variant-numeric:normal;font-feature-settings:normal;text-align:start;writing-mode:lr-tb;text-anchor:start;fill:#000000;fill-opacity:0.25098039;stroke-width:2.83470774"
           y="199.14102"
           x="104.61706"
           id="tspan815"
           sodipodi:role="line">0</tspan></text>
      <text
         xml:space="preserve"
         style="font-style:normal;font-variant:normal;font-weight:normal;font-stretch:normal;font-size:113.38768768px;line-height:1.25;font-family:sans-serif;-inkscape-font-specification:'sans-serif, Normal';font-variant-ligatures:normal;font-variant-caps:normal;font-variant-numeric:normal;font-feature-settings:normal;text-align:start;letter-spacing:0px;word-spacing:0px;writing-mode:lr-tb;text-anchor:start;fill:#000000;fill-opacity:0.25098039;stroke:none;stroke-width:2.83470774"
         x="105.28143"
         y="199.19638"
         id="text821"><tspan
           sodipodi:role="line"
           id="tspan819"
           x="105.28143"
           y="199.19638"
           style="font-style:normal;font-variant:normal;font-weight:normal;font-stretch:normal;font-size:113.38768768px;font-family:sans-serif;-inkscape-font-specification:'sans-serif, Normal';font-variant-ligatures:normal;font-variant-caps:normal;font-variant-numeric:normal;font-feature-settings:normal;text-align:start;writing-mode:lr-tb;text-anchor:start;fill:#000000;fill-opacity:0.25098039;stroke-width:2.83470774">9</tspan></text>
      <text
         id="text833"
         y="199.30711"
         x="103.01145"
         style="font-style:normal;font-variant:normal;font-weight:normal;font-stretch:normal;font-size:113.38768768px;line-height:1.25;font-family:sans-serif;-inkscape-font-specification:'sans-serif, Normal';font-variant-ligatures:normal;font-variant-caps:normal;font-variant-numeric:normal;font-feature-settings:normal;text-align:start;letter-spacing:0px;word-spacing:0px;writing-mode:lr-tb;text-anchor:start;fill:#000000;fill-opacity:0.25098039;stroke:none;stroke-width:2.83470774"
         xml:space="preserve"><tspan
           style="font-style:normal;font-variant:normal;font-weight:normal;font-stretch:normal;font-size:113.38768768px;font-family:sans-serif;-inkscape-font-specification:'sans-serif, Normal';font-variant-ligatures:normal;font-variant-caps:normal;font-variant-numeric:normal;font-feature-settings:normal;text-align:start;writing-mode:lr-tb;text-anchor:start;fill:#000000;fill-opacity:0.25098039;stroke-width:2.83470774"
           y="199.30711"
           x="103.01145"
           id="tspan831"
           sodipodi:role="line">1</tspan></text>
    </g>
    <g
       id="g873"
       transform="matrix(0.57229307,0,0,0.57229307,2.0602502,27.049631)">
      <text
         id="text825"
         y="212.22151"
         x="21.4223"
         style="font-style:normal;font-variant:normal;font-weight:normal;font-stretch:normal;font-size:106.9588089px;line-height:1.25;font-family:sans-serif;-inkscape-font-specification:'sans-serif, Normal';font-variant-ligatures:normal;font-variant-caps:normal;font-variant-numeric:normal;font-feature-settings:normal;text-align:start;letter-spacing:0px;word-spacing:0px;writing-mode:lr-tb;text-anchor:start;fill:#000000;fill-opacity:0.25098039;stroke:none;stroke-width:5.96844435"
         xml:space="preserve"><tspan
           style="font-style:normal;font-variant:normal;font-weight:normal;font-stretch:normal;font-size:106.9588089px;font-family:sans-serif;-inkscape-font-specification:'sans-serif, Normal';font-variant-ligatures:normal;font-variant-caps:normal;font-variant-numeric:normal;font-feature-settings:normal;text-align:start;writing-mode:lr-tb;text-anchor:start;fill:#000000;fill-opacity:0.25098039;stroke-width:5.96844435"
           y="212.22151"
           x="21.4223"
           id="tspan823"
           sodipodi:role="line">8</tspan></text>
      <text
         id="text829"
         y="212.22151"
         x="19.96517"
         style="font-style:normal;font-variant:normal;font-weight:normal;font-stretch:normal;font-size:106.9588089px;line-height:1.25;font-family:sans-serif;-inkscape-font-specification:'sans-serif, Normal';font-variant-ligatures:normal;font-variant-caps:normal;font-variant-numeric:normal;font-feature-settings:normal;text-align:start;letter-spacing:0px;word-spacing:0px;writing-mode:lr-tb;text-anchor:start;fill:#000000;fill-opacity:0.25098039;stroke:none;stroke-width:5.96844435"
         xml:space="preserve"><tspan
           style="font-style:normal;font-variant:normal;font-weight:normal;font-stretch:normal;font-size:106.9588089px;font-family:sans-serif;-inkscape-font-specification:'sans-serif, Normal';font-variant-ligatures:normal;font-variant-caps:normal;font-variant-numeric:normal;font-feature-settings:normal;text-align:start;writing-mode:lr-tb;text-anchor:start;fill:#000000;fill-opacity:0.25098039;stroke-width:5.96844435"
           y="212.22151"
           x="19.96517"
           id="tspan827"
           sodipodi:role="line">7</tspan></text>
      <text
         xml:space="preserve"
         style="font-style:normal;font-variant:normal;font-weight:normal;font-stretch:normal;font-size:106.9588089px;line-height:1.25;font-family:sans-serif;-inkscape-font-specification:'sans-serif, Normal';font-variant-ligatures:normal;font-variant-caps:normal;font-variant-numeric:normal;font-feature-settings:normal;text-align:start;letter-spacing:0px;word-spacing:0px;writing-mode:lr-tb;text-anchor:start;fill:#000000;fill-opacity:0.25098039;stroke:none;stroke-width:5.96844435"
         x="18.974321"
         y="210.41467"
         id="text837"><tspan
           sodipodi:role="line"
           id="tspan835"
           x="18.974321"
           y="210.41467"
           style="font-style:normal;font-variant:normal;font-weight:normal;font-stretch:normal;font-size:106.9588089px;font-family:sans-serif;-inkscape-font-specification:'sans-serif, Normal';font-variant-ligatures:normal;font-variant-caps:normal;font-variant-numeric:normal;font-feature-settings:normal;text-align:start;writing-mode:lr-tb;text-anchor:start;fill:#000000;fill-opacity:0.25098039;stroke-width:5.96844435">5</tspan></text>
    </g>
    <g
       id="g886"
       transform="matrix(0.57229307,0,0,0.57229307,41.645578,-11.106784)">
      <text
         transform="matrix(0.96250643,0.51947705,-0.96250643,0.51947705,0,0)"
         xml:space="preserve"
         style="font-style:normal;font-variant:normal;font-weight:normal;font-stretch:normal;font-size:83.30043793px;line-height:1.25;font-family:sans-serif;-inkscape-font-specification:'sans-serif, Normal';font-variant-ligatures:normal;font-variant-caps:normal;font-variant-numeric:normal;font-feature-settings:normal;text-align:start;letter-spacing:0px;word-spacing:0px;writing-mode:lr-tb;text-anchor:start;fill:#000100;fill-opacity:0.54117647;stroke:none;stroke-width:2.08252215"
         x="272.97519"
         y="184.34506"
         id="text841"><tspan
           sodipodi:role="line"
           id="tspan839"
           x="272.97519"
           y="184.34506"
           style="font-style:normal;font-variant:normal;font-weight:normal;font-stretch:normal;font-size:83.30043793px;font-family:sans-serif;-inkscape-font-specification:'sans-serif, Normal';font-variant-ligatures:normal;font-variant-caps:normal;font-variant-numeric:normal;font-feature-settings:normal;text-align:start;writing-mode:lr-tb;text-anchor:start;fill:#000100;fill-opacity:0.54117647;stroke-width:2.08252215">0</tspan></text>
      <text
         transform="matrix(1.0801151,0.46291362,-1.0801151,0.46291362,0,0)"
         id="text845"
         y="235.40654"
         x="321.0838"
         style="font-style:normal;font-variant:normal;font-weight:normal;font-stretch:normal;font-size:74.23023987px;line-height:1.25;font-family:sans-serif;-inkscape-font-specification:'sans-serif, Normal';font-variant-ligatures:normal;font-variant-caps:normal;font-variant-numeric:normal;font-feature-settings:normal;text-align:start;letter-spacing:0px;word-spacing:0px;writing-mode:lr-tb;text-anchor:start;fill:#000000;fill-opacity:0.1254902;stroke:none;stroke-width:1.85576618"
         xml:space="preserve"><tspan
           style="font-style:normal;font-variant:normal;font-weight:normal;font-stretch:normal;font-size:74.23023987px;font-family:sans-serif;-inkscape-font-specification:'sans-serif, Normal';font-variant-ligatures:normal;font-variant-caps:normal;font-variant-numeric:normal;font-feature-settings:normal;text-align:start;writing-mode:lr-tb;text-anchor:start;fill:#000000;fill-opacity:0.1254902;stroke-width:1.85576618"
           y="235.40654"
           x="321.0838"
           id="tspan843"
           sodipodi:role="line">9</tspan></text>
      <g
         id="g877">
        <text
           id="text849"
           y="220.37161"
           x="309.29694"
           style="font-style:normal;font-variant:normal;font-weight:normal;font-stretch:normal;font-size:77.82432556px;line-height:1.25;font-family:sans-serif;-inkscape-font-specification:'sans-serif, Normal';font-variant-ligatures:normal;font-variant-caps:normal;font-variant-numeric:normal;font-feature-settings:normal;text-align:start;letter-spacing:0px;word-spacing:0px;writing-mode:lr-tb;text-anchor:start;fill:#000000;fill-opacity:0.1254902;stroke:none;stroke-width:1.94561875"
           xml:space="preserve"
           transform="matrix(1.0302332,0.48532701,-1.0302332,0.48532701,0,0)"><tspan
             style="font-style:normal;font-variant:normal;font-weight:normal;font-stretch:normal;font-size:77.82432556px;font-family:sans-serif;-inkscape-font-specification:'sans-serif, Normal';font-variant-ligatures:normal;font-variant-caps:normal;font-variant-numeric:normal;font-feature-settings:normal;text-align:start;writing-mode:lr-tb;text-anchor:start;fill:#000000;fill-opacity:0.1254902;stroke-width:1.94561875"
             y="220.37161"
             x="309.29694"
             id="tspan847"
             sodipodi:role="line">1</tspan></text>
      </g>
    </g>
    <flowRoot
       xml:space="preserve"
       id="flowRoot851"
       style="font-style:normal;font-weight:normal;font-size:40px;line-height:1.25;font-family:sans-serif;letter-spacing:0px;word-spacing:0px;fill:#000000;fill-opacity:1;stroke:none"
       transform="scale(0.26458333)"><flowRegion
         id="flowRegion853"><rect
           id="rect855"
           width="377.14285"
           height="361.42856"
           x="378.57144"
           y="741.09113" /></flowRegion><flowPara
         id="flowPara857" /></flowRoot>    <g
       id="g3323"
       style="font-style:normal;font-weight:normal;font-size:10.58333302px;line-height:1.25;font-family:sans-serif;letter-spacing:0px;word-spacing:0px;fill:#999999;fill-opacity:1;stroke:none;stroke-width:0.26458332"
       aria-label="3"
       transform="matrix(0.70710678,0.35724477,-0.70710678,0.35724477,188.92867,96.488905)">
      <path
         id="path3321"
         style="font-style:normal;font-variant:normal;font-weight:normal;font-stretch:normal;font-size:25.39999962px;font-family:'Bebas Neue';-inkscape-font-specification:'Bebas Neue, Normal';font-variant-ligatures:normal;font-variant-caps:normal;font-variant-numeric:normal;font-feature-settings:normal;text-align:start;writing-mode:lr-tb;text-anchor:start;stroke-width:0.26458332;fill:#999999"
         d="m 122.45279,201.1791 c -2.7178,0 -3.9878,1.7526 -3.9878,4.4704 v 0.8128 h 1.8542 v -0.9144 c 0,-1.6002 0.6604,-2.5908 2.0828,-2.5908 1.4478,0 2.0828,0.9398 2.0828,2.7686 v 0.8128 c 0,1.5494 -0.8128,2.3876 -2.1336,2.4384 h -1.1684 v 1.778 h 1.0668 c 1.4986,0.0508 2.2352,0.889 2.2352,2.6416 v 1.3716 c 0,1.8034 -0.635,2.7432 -2.0828,2.7432 -1.4224,0 -2.0828,-0.9652 -2.0828,-2.5654 v -1.3462 h -1.8542 v 1.2192 c 0,2.7178 1.27,4.4958 3.9878,4.4958 2.7432,0 4.0132,-1.778 4.0132,-4.4958 v -1.3716 c 0,-1.778 -0.6604,-3.1242 -2.159,-3.683 1.4224,-0.5334 2.159,-1.8288 2.159,-3.6576 v -0.4572 c 0,-2.7178 -1.27,-4.4704 -4.0132,-4.4704 z"
         inkscape:connector-curvature="0" />
    </g>
    <g
       id="g3327"
       style="font-style:normal;font-weight:normal;font-size:10.58333302px;line-height:1.25;font-family:sans-serif;letter-spacing:0px;word-spacing:0px;fill:#999999;fill-opacity:1;stroke:none;stroke-width:0.26458332"
       aria-label="3"
       transform="matrix(0.70710678,-0.34470328,0.70710678,0.34470328,-117.28616,185.16065)">
      <path
         id="path3325"
         style="font-style:normal;font-variant:normal;font-weight:normal;font-stretch:normal;font-size:25.39999962px;font-family:'Bebas Neue';-inkscape-font-specification:'Bebas Neue, Normal';font-variant-ligatures:normal;font-variant-caps:normal;font-variant-numeric:normal;font-feature-settings:normal;text-align:start;writing-mode:lr-tb;text-anchor:start;fill:#999999;stroke-width:0.26458332"
         d="m 122.45279,201.1791 c -2.7178,0 -3.9878,1.7526 -3.9878,4.4704 v 0.8128 h 1.8542 v -0.9144 c 0,-1.6002 0.6604,-2.5908 2.0828,-2.5908 1.4478,0 2.0828,0.9398 2.0828,2.7686 v 0.8128 c 0,1.5494 -0.8128,2.3876 -2.1336,2.4384 h -1.1684 v 1.778 h 1.0668 c 1.4986,0.0508 2.2352,0.889 2.2352,2.6416 v 1.3716 c 0,1.8034 -0.635,2.7432 -2.0828,2.7432 -1.4224,0 -2.0828,-0.9652 -2.0828,-2.5654 v -1.3462 h -1.8542 v 1.2192 c 0,2.7178 1.27,4.4958 3.9878,4.4958 2.7432,0 4.0132,-1.778 4.0132,-4.4958 v -1.3716 c 0,-1.778 -0.6604,-3.1242 -2.159,-3.683 1.4224,-0.5334 2.159,-1.8288 2.159,-3.6576 v -0.4572 c 0,-2.7178 -1.27,-4.4704 -4.0132,-4.4704 z"
         inkscape:connector-curvature="0" />
    </g>
    <g
       aria-label="3"
       style="font-style:normal;font-weight:normal;font-size:10.58333302px;line-height:1.25;font-family:sans-serif;letter-spacing:0px;word-spacing:0px;fill:#000000;fill-opacity:1;stroke:none;stroke-width:0.26458332"
       id="text3316">
      <path
         d="m 122.45279,201.1791 c -2.7178,0 -3.9878,1.7526 -3.9878,4.4704 v 0.8128 h 1.8542 v -0.9144 c 0,-1.6002 0.6604,-2.5908 2.0828,-2.5908 1.4478,0 2.0828,0.9398 2.0828,2.7686 v 0.8128 c 0,1.5494 -0.8128,2.3876 -2.1336,2.4384 h -1.1684 v 1.778 h 1.0668 c 1.4986,0.0508 2.2352,0.889 2.2352,2.6416 v 1.3716 c 0,1.8034 -0.635,2.7432 -2.0828,2.7432 -1.4224,0 -2.0828,-0.9652 -2.0828,-2.5654 v -1.3462 h -1.8542 v 1.2192 c 0,2.7178 1.27,4.4958 3.9878,4.4958 2.7432,0 4.0132,-1.778 4.0132,-4.4958 v -1.3716 c 0,-1.778 -0.6604,-3.1242 -2.159,-3.683 1.4224,-0.5334 2.159,-1.8288 2.159,-3.6576 v -0.4572 c 0,-2.7178 -1.27,-4.4704 -4.0132,-4.4704 z"
         style="font-style:normal;font-variant:normal;font-weight:normal;font-stretch:normal;font-size:25.39999962px;font-family:'Bebas Neue';-inkscape-font-specification:'Bebas Neue, Normal';font-variant-ligatures:normal;font-variant-caps:normal;font-variant-numeric:normal;font-feature-settings:normal;text-align:start;writing-mode:lr-tb;text-anchor:start;stroke-width:0.26458332"
         id="path3318" />
    </g>
    <g
       aria-label="7"
       style="font-style:normal;font-weight:normal;font-size:10.58333302px;line-height:1.25;font-family:sans-serif;letter-spacing:0px;word-spacing:0px;fill:#cccccc;fill-opacity:1;stroke:none;stroke-width:0.26458332;opacity:0.557"
       id="text3331"
       transform="matrix(1.2297204,0.38047681,-0.7099794,1.4199588,124.91243,-118.91133)">
      <path
         d="m 93.752113,205.22414 -3.482991,6.54223 h -1.105876 l 3.7052,-6.79028 h -4.382161 v -0.90434 h 5.265828 z"
         style="stroke-width:0.26458332;fill:#cccccc"
         id="path3349"
         inkscape:connector-curvature="0" />
    </g>
    <text
       xml:space="preserve"
       style="font-style:normal;font-weight:normal;font-size:13.8429203px;line-height:1.25;font-family:sans-serif;letter-spacing:0px;word-spacing:0px;opacity:0.51799999;fill:#cccccc;fill-opacity:1;stroke:none;stroke-width:0.346073"
       x="189.8381"
       y="163.75969"
       id="text3362"
       transform="matrix(0.8660254,0.26794919,-0.5,1,0,0)"><tspan
         sodipodi:role="line"
         id="tspan3360"
         x="189.8381"
         y="163.75969"
         style="fill:#cccccc;stroke-width:0.346073">8</tspan></text>
    <g
       aria-label="5"
       style="font-style:normal;font-weight:normal;font-size:10.58333302px;line-height:1.25;font-family:sans-serif;letter-spacing:0px;word-spacing:0px;fill:#000000;fill-opacity:1;stroke:none;stroke-width:0.26458332"
       id="text3341"
       transform="matrix(1.4199588,0,0,1.4199588,-16.229688,-65.924082)">
      <path
         d="m 71.557836,195.99841 q 0,0.53743 -0.196371,1.02836 -0.19637,0.49093 -0.537435,0.82682 -0.37207,0.36174 -0.888834,0.55811 -0.511597,0.1912 -1.188558,0.1912 -0.630453,0 -1.214396,-0.13436 -0.583944,-0.12919 -0.98702,-0.31522 v -1.09038 h 0.07235 q 0.423747,0.26872 0.992187,0.45992 0.568441,0.18604 1.116211,0.18604 0.366903,0 0.707967,-0.10335 0.346232,-0.10336 0.61495,-0.36174 0.227376,-0.22221 0.341064,-0.53227 0.118856,-0.31006 0.118856,-0.7183 0,-0.39791 -0.139526,-0.67179 -0.134359,-0.27389 -0.377238,-0.43925 -0.268718,-0.19637 -0.656291,-0.27389 -0.382405,-0.0827 -0.857829,-0.0827 -0.454752,0 -0.878499,0.062 -0.418579,0.062 -0.72347,0.12402 v -3.96358 h 4.630208 v 0.90434 h -3.632853 v 2.04639 q 0.222209,-0.0207 0.454753,-0.031 0.232544,-0.0103 0.403076,-0.0103 0.625285,0 1.09554,0.10852 0.470256,0.10335 0.862997,0.37207 0.413411,0.28422 0.640787,0.7338 0.227377,0.44959 0.227377,1.12655 z"
         style="stroke-width:0.26458332"
         id="path3343"
         inkscape:connector-curvature="0" />
    </g>
    <text
       xml:space="preserve"
       style="font-style:normal;font-weight:normal;font-size:10.58333302px;line-height:1.25;font-family:sans-serif;letter-spacing:0px;word-spacing:0px;fill:#000000;fill-opacity:1;stroke:none;stroke-width:0.26458332"
       x="89.359276"
       y="256.81326"
       id="text3368"><tspan
         sodipodi:role="line"
         id="tspan3366"
         x="89.359276"
         y="256.81326"
         style="stroke-width:0.26458332">567983</tspan></text>
    <text
       xml:space="preserve"
       style="font-style:normal;font-weight:normal;font-size:10.58333302px;line-height:1.25;font-family:sans-serif;letter-spacing:0px;word-spacing:0px;fill:#000000;fill-opacity:1;stroke:none;stroke-width:0.26458332"
       x="92.853775"
       y="265.79913"
       id="text3372"><tspan
         sodipodi:role="line"
         id="tspan3370"
         x="92.853775"
         y="265.79913"
         style="stroke-width:0.26458332">13671</tspan></text>
    <text
       id="text3380"
       y="204.951"
       x="365.7399"
       style="font-style:normal;font-weight:normal;font-size:19.75555556px;line-height:1.25;font-family:'Koku Mincho Regular';letter-spacing:0px;word-spacing:0px;fill:#ececec;fill-opacity:1;stroke:none;stroke-width:0.41149807;-inkscape-font-specification:'Koku Mincho Regular, Normal';font-stretch:normal;font-variant:normal;text-anchor:start;text-align:start;writing-mode:lr;font-variant-ligatures:normal;font-variant-caps:normal;font-variant-numeric:normal;font-feature-settings:normal;stroke-opacity:1;"
       xml:space="preserve"
       transform="skewX(-45)"
       inkscape:transform-center-x="-0.17649874"
       inkscape:transform-center-y="12.70791"><tspan
         style="fill:#ececec;stroke-width:0.41149807;-inkscape-font-specification:'Koku Mincho Regular, Normal';font-family:'Koku Mincho Regular';font-weight:normal;font-style:normal;font-stretch:normal;font-variant:normal;font-size:19.75555556px;text-anchor:start;text-align:start;writing-mode:lr;font-variant-ligatures:normal;font-variant-caps:normal;font-variant-numeric:normal;font-feature-settings:normal;stroke:none;stroke-opacity:1;"
         y="204.951"
         x="365.7399"
         id="tspan3378"
         sodipodi:role="line">13671</tspan></text>
    <text
       id="text3376"
       y="208.51634"
       x="362.50226"
       style="font-style:normal;font-weight:normal;font-size:19.75555556px;line-height:1.25;font-family:'Koku Mincho Regular';letter-spacing:0px;word-spacing:0px;fill:#cccccc;fill-opacity:1;stroke:none;stroke-width:0.41149807;-inkscape-font-specification:'Koku Mincho Regular, Normal';font-stretch:normal;font-variant:normal;text-anchor:start;text-align:start;writing-mode:lr;font-variant-ligatures:normal;font-variant-caps:normal;font-variant-numeric:normal;font-feature-settings:normal;stroke-opacity:1;"
       xml:space="preserve"
       transform="skewX(-45)"><tspan
         style="stroke-width:0.41149807;fill:#cccccc;-inkscape-font-specification:'Koku Mincho Regular, Normal';font-family:'Koku Mincho Regular';font-weight:normal;font-style:normal;font-stretch:normal;font-variant:normal;font-size:19.75555556px;text-anchor:start;text-align:start;writing-mode:lr;font-variant-ligatures:normal;font-variant-caps:normal;font-variant-numeric:normal;font-feature-settings:normal;stroke:none;stroke-opacity:1;"
         y="208.51634"
         x="362.50226"
         id="tspan3374"
         sodipodi:role="line">567983</tspan></text>
    <text
       inkscape:transform-center-y="12.70791"
       inkscape:transform-center-x="-0.17649874"
       transform="skewX(-45)"
       xml:space="preserve"
       style="font-style:normal;font-weight:normal;font-size:19.75555556px;line-height:1.25;font-family:'Koku Mincho Regular';letter-spacing:0px;word-spacing:0px;fill:#000000;fill-opacity:1;stroke:none;stroke-width:0.41149807;-inkscape-font-specification:'Koku Mincho Regular, Normal';font-stretch:normal;font-variant:normal;text-anchor:start;text-align:start;writing-mode:lr;font-variant-ligatures:normal;font-variant-caps:normal;font-variant-numeric:normal;font-feature-settings:normal;stroke-opacity:1;"
       x="363.09402"
       y="203.89268"
       id="text3384"><tspan
         sodipodi:role="line"
         id="tspan3382"
         x="363.09402"
         y="203.89268"
         style="fill:#000000;stroke-width:0.41149807;-inkscape-font-specification:'Koku Mincho Regular, Normal';font-family:'Koku Mincho Regular';font-weight:normal;font-style:normal;font-stretch:normal;font-variant:normal;font-size:19.75555556px;text-anchor:start;text-align:start;writing-mode:lr;font-variant-ligatures:normal;font-variant-caps:normal;font-variant-numeric:normal;font-feature-settings:normal;stroke:none;stroke-opacity:1;">13671</tspan></text>
    <path
       inkscape:connector-curvature="0"
       id="path2020"
       style="font-style:normal;font-variant:normal;font-weight:normal;font-stretch:normal;font-size:16.93333244px;line-height:1.25;font-family:'Koku Mincho Regular';-inkscape-font-specification:'Koku Mincho Regular, Normal';font-variant-ligatures:normal;font-variant-caps:normal;font-variant-numeric:normal;font-feature-settings:normal;text-align:start;letter-spacing:0px;word-spacing:0px;writing-mode:lr-tb;text-anchor:start;fill:#000000;fill-opacity:0.25098039;stroke:none;stroke-width:0.30901566"
       d="m 188.77592,236.64727 q -1.9424,3.00744 -4.88034,2.09127 -1.61299,-0.50295 -2.36177,-1.86311 -0.91896,-1.64633 -0.11755,-3.7469 0.61596,-1.61448 2.04498,-2.43152 1.2741,-0.74878 2.4838,-0.37159 1.40178,0.43711 0.99113,1.51342 -0.34445,0.90272 -1.32371,0.59737 -0.90253,-0.28142 -0.61111,-1.04528 0.0461,-0.12174 0.0986,-0.20232 -0.56411,-0.0983 -1.17732,0.15735 -1.13037,0.54111 -1.64698,1.89519 -0.52324,1.37144 0.13751,2.56814 0.61637,1.14406 2.03734,1.58716 1.32493,0.41318 2.51291,-0.10998 1.31048,-0.56262 1.88669,-2.07296 l 0.33775,-0.88537 0.7873,0.24546 -0.33775,0.88537 q -0.47691,1.24991 0.10183,2.32394 0.61637,1.14404 2.05654,1.59314 1.15214,0.35925 2.16596,-0.10162 1.08465,-0.47766 1.52179,-1.62344 0.43714,-1.14574 0.0188,-2.18921 -0.22438,-0.59449 -0.70264,-0.91825 -0.31787,0.8333 -1.2012,0.55785 -0.97932,-0.30534 -0.64153,-1.19074 0.37092,-0.97214 1.61903,-0.58295 1.20973,0.37725 1.71286,1.87444 0.44021,1.38052 -0.10945,2.82139 -0.70207,1.84019 -2.25158,2.52254 -1.26544,0.55722 -2.648,0.12613 -2.82273,-0.88022 -2.36953,-3.98294 z" />
    <path
       inkscape:connector-curvature="0"
       id="path2022"
       style="font-style:normal;font-variant:normal;font-weight:normal;font-stretch:normal;font-size:16.93333244px;line-height:1.25;font-family:'Koku Mincho Regular';-inkscape-font-specification:'Koku Mincho Regular, Normal';font-variant-ligatures:normal;font-variant-caps:normal;font-variant-numeric:normal;font-feature-settings:normal;text-align:start;letter-spacing:0px;word-spacing:0px;writing-mode:lr-tb;text-anchor:start;fill:#000000;fill-opacity:0.47368421;stroke:none;stroke-width:0.28004584"
       d="m 193.01775,232.92283 q 2.38947,-0.22237 3.6617,1.44236 1.16839,1.52803 0.56431,3.20606 -0.48378,1.24711 -1.97566,2.14456 -1.69156,1.01803 -3.47259,0.71458 -1.66214,-0.29482 -2.66326,-1.60478 -1.09514,-1.43268 -0.62475,-3.05017 0.57573,-1.91992 3.46721,-3.6593 3.62945,-2.18381 6.42639,-1.81424 1.78519,0.22082 2.80715,1.55807 0.71932,0.94167 0.75871,1.87406 0.0522,1.2434 -0.74757,1.7245 -0.87648,0.52759 -1.43978,-0.20949 -0.54234,-0.70953 0.19598,-1.15366 0.52268,-0.31485 1.10817,0.0106 0.34299,-0.84375 -0.39738,-1.81255 -0.91721,-1.20108 -2.88039,-1.09572 -2.12747,0.12452 -4.81951,1.68419 z m 3.0048,1.75786 q -0.66699,-0.87355 -1.8546,-1.0754 -1.4557,-0.25967 -2.9937,0.66552 -1.38449,0.83234 -1.80152,2.01991 -0.40192,1.17795 0.32805,2.13311 0.87629,1.14603 2.49326,1.02985 1.12303,-0.0581 2.29193,-0.76125 1.61479,-0.97161 1.91802,-2.24933 0.2338,-0.9573 -0.38147,-1.76237 z" />
    <path
       inkscape:connector-curvature="0"
       id="path2024"
       style="font-style:normal;font-variant:normal;font-weight:normal;font-stretch:normal;font-size:16.93333244px;line-height:1.25;font-family:'Koku Mincho Regular';-inkscape-font-specification:'Koku Mincho Regular, Normal';font-variant-ligatures:normal;font-variant-caps:normal;font-variant-numeric:normal;font-feature-settings:normal;text-align:start;letter-spacing:0px;word-spacing:0px;writing-mode:lr-tb;text-anchor:start;fill:#000000;fill-opacity:1;stroke:none;stroke-width:0.2885499"
       d="m 196.5696,238.50865 q -0.88125,1.93394 -3.40148,2.18005 -1.95366,0.19078 -3.26655,-0.71318 -1.38281,-0.98038 -1.62107,-2.70509 -0.2496,-1.80687 0.9096,-3.0188 1.12467,-1.17527 3.03925,-1.36223 4.88416,-0.47695 5.6806,5.2886 0.50146,3.63015 -1.01771,5.67633 -1.18516,1.59736 -3.25602,1.79962 -1.68014,0.16406 -2.97261,-0.59205 -0.81728,-0.46953 -0.90346,-1.09377 -0.13388,-0.96913 0.92108,-1.07216 1.07451,-0.10494 1.18798,0.71634 0.0817,0.59135 -0.49672,0.84759 0.68365,0.6491 2.05124,0.51555 1.7583,-0.17171 2.61586,-1.70378 0.94983,-1.72422 0.58867,-4.76876 z m -4.2218,-5.04814 q -1.42618,0.13927 -2.14514,1.24159 -0.63486,0.99426 -0.44652,2.35762 0.19059,1.37979 1.0187,2.21454 0.93942,0.92376 2.42419,0.77878 1.30897,-0.12782 2.08601,-0.95285 0.93017,-1.00645 0.71009,-2.59978 -0.19967,-1.44549 -1.20816,-2.29591 -1.03256,-0.88139 -2.4392,-0.74403 z" />
    <text
       id="text2029"
       y="250.55876"
       x="169.79178"
       style="font-style:normal;font-variant:normal;font-weight:normal;font-stretch:normal;font-size:4.58611107px;line-height:1.25;font-family:sans-serif;-inkscape-font-specification:'Koku Mincho Regular, Normal';font-variant-ligatures:normal;font-variant-caps:normal;font-variant-numeric:normal;font-feature-settings:normal;text-align:start;letter-spacing:0px;word-spacing:0px;writing-mode:lr-tb;text-anchor:start;fill:#000000;fill-opacity:1;stroke:none;stroke-width:0.07000434"
       xml:space="preserve"><tspan
         style="stroke-width:0.07000434"
         y="250.55876"
         x="169.79178"
         id="tspan2027"
         sodipodi:role="line">369を重ねてみた</tspan></text>
    <path
       d="m 183.0908,262.4449 q 0.30696,0.18212 0.50521,0.45737 0.19818,0.27525 0.19818,0.71144 0,0.43195 -0.23674,0.79191 -0.23674,0.35998 -0.66507,0.62676 -0.47962,0.29643 -1.13189,0.44042 -0.64588,0.13976 -1.41964,0.13976 -0.79298,0 -1.56034,-0.12708 -0.76739,-0.12274 -1.2598,-0.27104 v -0.88507 h 0.0959 q 0.54356,0.23715 1.27896,0.39383 0.73541,0.15677 1.41967,0.15677 0.40289,0 0.85692,-0.0889 0.45403,-0.0889 0.7354,-0.26256 0.29417,-0.18628 0.43485,-0.41078 0.14707,-0.22443 0.14707,-0.56747 0,-0.33877 -0.16621,-0.559 -0.15992,-0.22443 -0.44763,-0.35148 -0.28777,-0.13124 -0.69703,-0.17777 -0.40928,-0.0509 -0.8825,-0.0509 h -0.57555 v -0.70299 h 0.44767 q 0.972,0 1.54754,-0.26678 0.58194,-0.27104 0.58194,-0.78769 0,-0.22868 -0.14707,-0.39807 -0.14707,-0.1736 -0.40925,-0.28374 -0.27501,-0.11006 -0.58834,-0.15242 -0.31336,-0.0424 -0.70982,-0.0424 -0.60752,0 -1.29176,0.14392 -0.68426,0.14391 -1.29178,0.40655 h -0.064 v -0.88508 q 0.45403,-0.14827 1.20863,-0.27104 0.76099,-0.12708 1.47081,-0.12708 0.69705,0 1.22782,0.0847 0.53077,0.0847 0.95924,0.27104 0.46043,0.20325 0.69702,0.49124 0.23674,0.28796 0.23674,0.67333 0,0.52511 -0.56275,0.91896 -0.55635,0.38961 -1.31734,0.49124 v 0.0592 q 0.30696,0.0339 0.70342,0.14391 0.39649,0.10591 0.67147,0.26679 z"
       style="font-style:normal;font-variant:normal;font-weight:normal;font-stretch:normal;font-size:4.58611107px;line-height:1.25;font-family:sans-serif;-inkscape-font-specification:'Koku Mincho Regular, Normal';font-variant-ligatures:normal;font-variant-caps:normal;font-variant-numeric:normal;font-feature-settings:normal;text-align:start;letter-spacing:0px;word-spacing:0px;writing-mode:lr-tb;text-anchor:start;fill:#000000;fill-opacity:0.25098039;stroke:none;stroke-width:0.16268358"
       id="path2035"
       inkscape:connector-curvature="0" />
    <path
       d="m 178.72294,263.72383 q 0,0.96132 -0.95924,1.57113 -0.95281,0.60558 -2.34053,0.60558 -0.70342,0 -1.27896,-0.14391 -0.57554,-0.14392 -1.01678,-0.42772 -0.54996,-0.35149 -0.85052,-0.93167 -0.2942,-0.58016 -0.2942,-1.39748 0,-0.83849 0.26872,-1.48643 0.27501,-0.64792 0.86969,-1.15187 0.56275,-0.47853 1.45165,-0.74533 0.88887,-0.27104 2.07191,-0.27104 0.3773,0 0.63309,0.0212 0.25587,0.0212 0.518,0.0762 v 0.80885 h -0.064 q -0.17905,-0.0635 -0.54359,-0.11857 -0.35811,-0.0594 -0.7354,-0.0594 -1.37489,0 -2.19343,0.5717 -0.81854,0.56747 -0.95284,1.53725 0.53716,-0.21597 1.05516,-0.32609 0.52437,-0.11442 1.20863,-0.11442 0.6075,0 1.06793,0.0762 0.46682,0.072 0.95284,0.29643 0.56275,0.25833 0.84412,0.65218 0.2878,0.39382 0.2878,0.95706 z m -1.29816,0.0338 q 0,-0.39384 -0.17905,-0.65217 -0.17277,-0.25833 -0.57555,-0.4489 -0.29416,-0.1354 -0.65227,-0.17776 -0.35811,-0.0424 -0.7482,-0.0424 -0.54356,0 -1.01039,0.0847 -0.46682,0.0847 -0.95924,0.26254 -0.0114,0.0932 -0.02,0.18212 -0.006,0.0847 -0.006,0.21598 0,0.6691 0.20476,1.05871 0.21104,0.38536 0.57554,0.60982 0.29417,0.18627 0.63309,0.27525 0.34534,0.0847 0.7482,0.0847 0.92725,0 1.45805,-0.37266 0.53076,-0.3769 0.53076,-1.07987 z"
       style="font-style:normal;font-variant:normal;font-weight:normal;font-stretch:normal;font-size:4.58611107px;line-height:1.25;font-family:sans-serif;-inkscape-font-specification:'Koku Mincho Regular, Normal';font-variant-ligatures:normal;font-variant-caps:normal;font-variant-numeric:normal;font-feature-settings:normal;text-align:start;letter-spacing:0px;word-spacing:0px;writing-mode:lr-tb;text-anchor:start;fill:#000000;fill-opacity:0.25098039;stroke:none;stroke-width:0.16268358"
       id="path2037"
       inkscape:connector-curvature="0" />
    <path
       d="m 181.08405,256.55203 q 0,0.8258 -0.28777,1.49914 -0.28129,0.67333 -0.85692,1.14763 -0.58194,0.48276 -1.45802,0.74533 -0.87611,0.26256 -2.05915,0.26256 -0.33252,0 -0.62669,-0.0253 -0.29416,-0.0212 -0.52439,-0.072 v -0.80886 h 0.064 q 0.18533,0.0636 0.52436,0.12274 0.33892,0.055 0.7546,0.055 1.41327,0 2.21262,-0.559 0.80577,-0.56323 0.93365,-1.54995 -0.59471,0.23715 -1.1191,0.3388 -0.52437,0.10155 -1.14469,0.10155 -0.58831,0 -1.06793,-0.0762 -0.47322,-0.0762 -0.95284,-0.29644 -0.56275,-0.25832 -0.85052,-0.65639 -0.28129,-0.39808 -0.28129,-0.95284 0,-0.96554 0.95924,-1.57111 0.95924,-0.6056 2.34052,-0.6056 0.69063,0 1.27897,0.14391 0.58833,0.13976 1.02957,0.42349 0.54356,0.35148 0.83773,0.90624 0.29417,0.55055 0.29417,1.42714 z m -1.29176,-0.18212 q 0,-0.65639 -0.20475,-1.05447 -0.20476,-0.39806 -0.56275,-0.61829 -0.30057,-0.19055 -0.64588,-0.27101 -0.34532,-0.0847 -0.7482,-0.0847 -0.92086,0 -1.45802,0.38114 -0.5308,0.38114 -0.5308,1.07142 0,0.4023 0.17278,0.65639 0.17277,0.25409 0.58191,0.44466 0.28777,0.13125 0.63311,0.17796 0.34532,0.0424 0.76736,0.0424 0.49881,0 1.01039,-0.0889 0.5116,-0.0889 0.95924,-0.25833 0.006,-0.0889 0.0114,-0.17361 0.0114,-0.0889 0.0114,-0.22445 z"
       style="font-style:normal;font-variant:normal;font-weight:normal;font-stretch:normal;font-size:4.58611107px;line-height:1.25;font-family:sans-serif;-inkscape-font-specification:'Koku Mincho Regular, Normal';font-variant-ligatures:normal;font-variant-caps:normal;font-variant-numeric:normal;font-feature-settings:normal;text-align:start;letter-spacing:0px;word-spacing:0px;writing-mode:lr-tb;text-anchor:start;fill:#000000;fill-opacity:0.25098039;stroke:none;stroke-width:0.16268358"
       id="path2039"
       inkscape:connector-curvature="0" />
    <path
       inkscape:connector-curvature="0"
       id="path2054"
       style="font-style:normal;font-variant:normal;font-weight:normal;font-stretch:normal;font-size:4.58611107px;line-height:1.25;font-family:sans-serif;-inkscape-font-specification:'Koku Mincho Regular, Normal';font-variant-ligatures:normal;font-variant-caps:normal;font-variant-numeric:normal;font-feature-settings:normal;text-align:start;letter-spacing:0px;word-spacing:0px;writing-mode:lr-tb;text-anchor:start;fill:#000000;fill-opacity:0.25098039;stroke:none;stroke-width:0.13959786"
       d="m 196.71502,262.1999 q 0.0516,0.17574 -0.0732,0.44159 -0.12501,0.26583 -0.56282,0.68692 -0.43346,0.41707 -0.9752,0.76462 -0.54178,0.34755 -1.13617,0.60513 -0.66324,0.28621 -1.30516,0.42523 -0.63284,0.13498 -1.22292,0.13498 -0.60475,0 -1.0624,-0.12257 -0.46209,-0.11844 -0.68878,-0.26169 l 0.88816,-0.85456 h 0.0732 q 0.17662,0.2289 0.58018,0.38024 0.40348,0.15123 0.92532,0.15123 0.30725,0 0.74273,-0.086 0.43543,-0.0859 0.82429,-0.25342 0.41128,-0.17987 0.74386,-0.39661 0.33735,-0.21679 0.6816,-0.54789 0.33994,-0.32711 0.43419,-0.53974 0.10323,-0.21679 0.0109,-0.33936 -0.0875,-0.12671 -0.3532,-0.17161 -0.26108,-0.049 -0.62197,-0.049 h -0.43892 l 0.70547,-0.67873 h 0.3414 q 0.74127,0 1.44791,-0.25755 0.71577,-0.26169 1.23423,-0.76055 0.22954,-0.22063 0.2873,-0.38432 0.0621,-0.16776 -0.0272,-0.27409 -0.0991,-0.10633 -0.2957,-0.14709 -0.19644,-0.0408 -0.49882,-0.0408 -0.46331,0 -1.12955,0.13882 -0.66625,0.13911 -1.3931,0.39253 h -0.0488 l 0.88817,-0.85456 q 0.49505,-0.14325 1.1937,-0.26169 0.7079,-0.12257 1.24923,-0.12257 0.53159,0 0.85131,0.0818 0.31976,0.0818 0.45957,0.26169 0.14722,0.19612 0.0386,0.47431 -0.10846,0.27794 -0.49515,0.65012 -0.52695,0.50701 -1.35133,0.88725 -0.81525,0.3762 -1.49761,0.47432 l -0.0592,0.0573 q 0.20014,0.0328 0.39205,0.13882 0.19623,0.10219 0.24433,0.25755 z" />
    <path
       inkscape:connector-curvature="0"
       id="path2056"
       style="font-style:normal;font-variant:normal;font-weight:normal;font-stretch:normal;font-size:4.58611107px;line-height:1.25;font-family:sans-serif;-inkscape-font-specification:'Koku Mincho Regular, Normal';font-variant-ligatures:normal;font-variant-caps:normal;font-variant-numeric:normal;font-feature-settings:normal;text-align:start;letter-spacing:0px;word-spacing:0px;writing-mode:lr-tb;text-anchor:start;fill:#000000;fill-opacity:0.25098039;stroke:none;stroke-width:0.13959786"
       d="m 194.88409,261.48865 q -0.9647,0.92816 -2.30818,1.51696 -1.33434,0.58469 -2.39264,0.58469 -0.53645,0 -0.83094,-0.13882 -0.29451,-0.13911 -0.34621,-0.41297 -0.0669,-0.33936 0.28637,-0.89954 0.35782,-0.56018 1.17801,-1.34932 0.84143,-0.80957 1.69658,-1.43517 0.8599,-0.62557 1.81915,-1.11214 0.90936,-0.46203 1.85498,-0.71965 0.94986,-0.26168 1.85208,-0.26168 0.28773,0 0.46155,0.0207 0.17401,0.0207 0.31855,0.0736 l -0.8117,0.78095 h -0.0488 q -0.0727,-0.0614 -0.29553,-0.1146 -0.21365,-0.0573 -0.50125,-0.0573 -1.04852,0 -2.24644,0.55199 -1.1937,0.54789 -2.26929,1.48424 0.62635,-0.20853 1.13189,-0.31486 0.51471,-0.11046 1.03654,-0.11046 0.46329,0 0.73796,0.0735 0.28371,0.0697 0.42921,0.28621 0.16987,0.24957 -0.0109,0.62967 -0.17553,0.38025 -0.74092,0.92406 z m -1.02398,0.0328 q 0.39522,-0.38028 0.51787,-0.62968 0.12741,-0.24958 0.0109,-0.43341 -0.0884,-0.13084 -0.31905,-0.1716 -0.23061,-0.0408 -0.52811,-0.0408 -0.41453,0 -0.85554,0.0818 -0.44103,0.0818 -0.99499,0.25342 -0.10236,0.0901 -0.19775,0.17574 -0.0893,0.0818 -0.22103,0.20852 -0.67147,0.64604 -0.90628,1.02221 -0.22571,0.37206 -0.17292,0.5888 0.0375,0.17987 0.20646,0.26582 0.17836,0.0818 0.48557,0.0818 0.70714,0 1.48589,-0.3598 0.783,-0.36391 1.48845,-1.04265 z" />
    <path
       inkscape:connector-curvature="0"
       id="path2058"
       style="font-style:normal;font-variant:normal;font-weight:normal;font-stretch:normal;font-size:4.58611107px;line-height:1.25;font-family:sans-serif;-inkscape-font-specification:'Koku Mincho Regular, Normal';font-variant-ligatures:normal;font-variant-caps:normal;font-variant-numeric:normal;font-feature-settings:normal;text-align:start;letter-spacing:0px;word-spacing:0px;writing-mode:lr-tb;text-anchor:start;fill:#000000;fill-opacity:0.25098039;stroke:none;stroke-width:0.13959786"
       d="m 196.80083,257.162 q -0.82869,0.79732 -1.72385,1.44744 -0.89021,0.65011 -1.80514,1.10806 -0.92826,0.46611 -1.85986,0.71964 -0.93163,0.25342 -1.83385,0.25342 -0.25359,0 -0.45249,-0.0236 -0.20319,-0.0207 -0.32761,-0.0697 l 0.8117,-0.78096 h 0.0488 q 0.0775,0.0614 0.27671,0.11844 0.2032,0.0532 0.52025,0.0532 1.07779,0 2.24833,-0.53973 1.17972,-0.54382 2.26742,-1.4965 -0.69153,0.22891 -1.19344,0.32711 -0.50182,0.0981 -0.97489,0.0981 -0.44865,0 -0.73794,-0.0735 -0.28442,-0.0736 -0.4292,-0.2862 -0.16988,-0.24929 0.0109,-0.63378 0.18512,-0.38435 0.74167,-0.91999 0.96892,-0.93224 2.30814,-1.51693 1.33926,-0.58472 2.39266,-0.58472 0.52669,0 0.83093,0.13911 0.30845,0.13498 0.36022,0.40887 0.0618,0.33937 -0.27064,0.875 -0.32816,0.53155 -1.20781,1.37793 z m -0.80238,-0.17574 q 0.65871,-0.63378 0.90204,-1.01813 0.24337,-0.38432 0.19143,-0.59694 -0.0379,-0.18401 -0.22059,-0.26169 -0.17837,-0.0818 -0.48557,-0.0818 -0.70227,0 -1.49442,0.36802 -0.78726,0.36802 -1.47995,1.03449 -0.40373,0.38843 -0.52693,0.63372 -0.12326,0.24545 -0.002,0.42937 0.0875,0.12671 0.30424,0.1719 0.22085,0.0411 0.54272,0.0411 0.3804,0 0.8597,-0.086 0.47936,-0.0856 0.99081,-0.24928 0.0936,-0.0859 0.18294,-0.16747 0.098,-0.086 0.2339,-0.21679 z" />
    <path
       d="m 214.73538,260.51669 q 0.0289,0.0853 -0.041,0.21422 -0.0701,0.12896 -0.31549,0.33323 -0.24298,0.20232 -0.54666,0.37092 -0.30369,0.1686 -0.63688,0.29356 -0.37178,0.13884 -0.73161,0.20628 -0.35475,0.0655 -0.68552,0.0655 -0.33899,0 -0.59553,-0.0595 -0.25903,-0.0575 -0.3861,-0.12695 l 0.49786,-0.41455 h 0.041 q 0.099,0.11104 0.32523,0.18446 0.22617,0.0734 0.51869,0.0734 0.17223,0 0.41634,-0.0417 0.24408,-0.0417 0.46206,-0.12294 0.23055,-0.0872 0.41697,-0.1924 0.18911,-0.10516 0.38208,-0.26578 0.19055,-0.15869 0.24339,-0.26183 0.0579,-0.10517 0.006,-0.16463 -0.0491,-0.0615 -0.19799,-0.0833 -0.14635,-0.0238 -0.34865,-0.0238 h -0.24604 l 0.39546,-0.32926 h 0.19137 q 0.41552,0 0.81163,-0.12494 0.40123,-0.12695 0.69186,-0.36895 0.12866,-0.10703 0.16104,-0.18643 0.0348,-0.0814 -0.0152,-0.13297 -0.0556,-0.0516 -0.16576,-0.0713 -0.11012,-0.0198 -0.27962,-0.0198 -0.25971,0 -0.63317,0.0673 -0.37347,0.0675 -0.78091,0.19042 h -0.0274 l 0.49786,-0.41456 q 0.27751,-0.0695 0.66914,-0.12694 0.39681,-0.0595 0.70026,-0.0595 0.29798,0 0.4772,0.0397 0.17925,0.0397 0.25762,0.12695 0.0825,0.0951 0.0216,0.23009 -0.0608,0.13483 -0.27756,0.31538 -0.29539,0.24595 -0.7575,0.43041 -0.45699,0.1825 -0.83949,0.2301 l -0.0332,0.0278 q 0.11219,0.0159 0.21976,0.0673 0.11,0.0496 0.13696,0.12493 z"
       style="font-style:normal;font-variant:normal;font-weight:normal;font-stretch:normal;font-size:4.58611107px;line-height:1.25;font-family:sans-serif;-inkscape-font-specification:'Koku Mincho Regular, Normal';font-variant-ligatures:normal;font-variant-caps:normal;font-variant-numeric:normal;font-feature-settings:normal;text-align:start;letter-spacing:0px;word-spacing:0px;writing-mode:lr-tb;text-anchor:start;fill:#000000;fill-opacity:0.25098039;stroke:none;stroke-width:0.07279593"
       id="path2060"
       inkscape:connector-curvature="0" />
    <path
       d="m 210.85114,262.97635 q -0.9647,0.92816 -2.30818,1.51696 -1.33434,0.58469 -2.39264,0.58469 -0.53645,0 -0.83094,-0.13882 -0.29451,-0.13911 -0.34621,-0.41297 -0.0669,-0.33936 0.28637,-0.89954 0.35782,-0.56018 1.17801,-1.34932 0.84143,-0.80957 1.69658,-1.43517 0.8599,-0.62557 1.81915,-1.11214 0.90936,-0.46203 1.85498,-0.71965 0.94986,-0.26168 1.85208,-0.26168 0.28773,0 0.46155,0.0207 0.17401,0.0207 0.31855,0.0736 l -0.8117,0.78095 h -0.0488 q -0.0727,-0.0614 -0.29553,-0.1146 -0.21365,-0.0573 -0.50125,-0.0573 -1.04852,0 -2.24644,0.55199 -1.1937,0.54789 -2.26929,1.48424 0.62635,-0.20853 1.13189,-0.31486 0.51471,-0.11046 1.03654,-0.11046 0.46329,0 0.73796,0.0735 0.28371,0.0697 0.42921,0.28621 0.16987,0.24957 -0.0109,0.62967 -0.17553,0.38025 -0.74092,0.92406 z m -1.02398,0.0328 q 0.39522,-0.38028 0.51787,-0.62968 0.12741,-0.24958 0.0109,-0.43341 -0.0884,-0.13084 -0.31905,-0.1716 -0.23061,-0.0408 -0.52811,-0.0408 -0.41453,0 -0.85554,0.0818 -0.44103,0.0818 -0.99499,0.25342 -0.10236,0.0901 -0.19775,0.17574 -0.0893,0.0818 -0.22103,0.20852 -0.67147,0.64604 -0.90628,1.02221 -0.22571,0.37206 -0.17292,0.5888 0.0375,0.17987 0.20646,0.26582 0.17836,0.0818 0.48557,0.0818 0.70714,0 1.48589,-0.3598 0.783,-0.36391 1.48845,-1.04265 z"
       style="font-style:normal;font-variant:normal;font-weight:normal;font-stretch:normal;font-size:4.58611107px;line-height:1.25;font-family:sans-serif;-inkscape-font-specification:'Koku Mincho Regular, Normal';font-variant-ligatures:normal;font-variant-caps:normal;font-variant-numeric:normal;font-feature-settings:normal;text-align:start;letter-spacing:0px;word-spacing:0px;writing-mode:lr-tb;text-anchor:start;fill:#000000;fill-opacity:0.25098039;stroke:none;stroke-width:0.13959786"
       id="path2062"
       inkscape:connector-curvature="0" />
    <path
       d="m 211.90664,259.73088 q -0.0295,1.11116 -0.3483,2.03915 -0.31217,0.92748 -0.91877,1.60961 -0.61339,0.69399 -1.52022,1.11416 -0.90702,0.42004 -2.11899,0.51031 -0.34067,0.0254 -0.63988,0.0149 -0.30118,-0.006 -0.53489,-0.0572 l 0.0289,-1.08837 0.0651,-0.005 q 0.18752,0.0714 0.53272,0.12508 0.34525,0.0482 0.77117,0.0166 1.44779,-0.10788 2.28663,-0.92101 0.84555,-0.81936 1.01178,-2.15681 -0.6178,0.36441 -1.15855,0.54127 -0.54077,0.17672 -1.17625,0.22406 -0.60269,0.0449 -1.09119,-0.0209 -0.48214,-0.0665 -0.96556,-0.32615 -0.56703,-0.30449 -0.84686,-0.81842 -0.27374,-0.5142 -0.25418,-1.26066 0.0344,-1.2992 1.03872,-2.18723 1.00427,-0.88808 2.41934,-0.99347 0.70756,-0.0526 1.30526,0.0962 0.59781,0.14321 1.03964,0.49125 0.54433,0.43147 0.82575,1.1555 0.28168,0.71833 0.25044,1.89787 z m -1.31673,-0.14636 q 0.0234,-0.88324 -0.17213,-1.40326 -0.19546,-0.51998 -0.55423,-0.78898 -0.30099,-0.23352 -0.65201,-0.31541 -0.35083,-0.0877 -0.76347,-0.0569 -0.9434,0.0702 -1.50726,0.62414 -0.55731,0.55338 -0.58194,1.48219 -0.0144,0.54133 0.15353,0.86998 0.16806,0.32887 0.58091,0.55393 0.2897,0.15465 0.64233,0.19124 0.35254,0.0309 0.78492,-10e-4 0.51104,-0.038 1.03795,-0.19693 0.52758,-0.15836 0.99215,-0.42061 0.009,-0.12017 0.0181,-0.23428 0.0149,-0.12069 0.0195,-0.30299 z"
       style="font-style:normal;font-variant:normal;font-weight:normal;font-stretch:normal;font-size:4.58611107px;line-height:1.25;font-family:sans-serif;-inkscape-font-specification:'Koku Mincho Regular, Normal';font-variant-ligatures:normal;font-variant-caps:normal;font-variant-numeric:normal;font-feature-settings:normal;text-align:start;letter-spacing:0px;word-spacing:0px;writing-mode:lr-tb;text-anchor:start;fill:#000000;fill-opacity:0.25098039;stroke:none;stroke-width:0.19081452"
       id="path2064"
       inkscape:connector-curvature="0" />
  </g>
</svg>
