<?xml version="1.0" encoding="UTF-8" standalone="no"?>
<!-- Created with Inkscape (http://www.inkscape.org/) -->

<svg
   xmlns:dc="http://purl.org/dc/elements/1.1/"
   xmlns:cc="http://creativecommons.org/ns#"
   xmlns:rdf="http://www.w3.org/1999/02/22-rdf-syntax-ns#"
   xmlns:svg="http://www.w3.org/2000/svg"
   xmlns="http://www.w3.org/2000/svg"
   xmlns:sodipodi="http://sodipodi.sourceforge.net/DTD/sodipodi-0.dtd"
   xmlns:inkscape="http://www.inkscape.org/namespaces/inkscape"
   width="297mm"
   height="210mm"
   viewBox="0 0 297 210"
   version="1.1"
   id="svg8"
   inkscape:version="0.92.4 (5da689c313, 2019-01-14)"
   sodipodi:docname="0004_greentea.svg"
   inkscape:export-filename="C:\Users\satos\inkscape\0004_greentea.png"
   inkscape:export-xdpi="96"
   inkscape:export-ydpi="96">
  <defs
     id="defs2" />
  <sodipodi:namedview
     id="base"
     pagecolor="#ffffff"
     bordercolor="#666666"
     borderopacity="1.0"
     inkscape:pageopacity="0.0"
     inkscape:pageshadow="2"
     inkscape:zoom="0.7"
     inkscape:cx="450.67457"
     inkscape:cy="552.00026"
     inkscape:document-units="mm"
     inkscape:current-layer="layer1"
     showgrid="false"
     inkscape:window-width="1920"
     inkscape:window-height="1057"
     inkscape:window-x="-8"
     inkscape:window-y="-8"
     inkscape:window-maximized="1"
     showguides="false"
     objecttolerance="20"
     gridtolerance="10">
    <inkscape:grid
       type="xygrid"
       id="grid815" />
  </sodipodi:namedview>
  <metadata
     id="metadata5">
    <rdf:RDF>
      <cc:Work
         rdf:about="">
        <dc:format>image/svg+xml</dc:format>
        <dc:type
           rdf:resource="http://purl.org/dc/dcmitype/StillImage" />
        <dc:title></dc:title>
      </cc:Work>
    </rdf:RDF>
  </metadata>
  <g
     inkscape:label="レイヤー 1"
     inkscape:groupmode="layer"
     id="layer1"
     transform="translate(0,-87)">
    <path
       style="font-style:normal;font-variant:normal;font-weight:normal;font-stretch:normal;font-size:50.79999924px;line-height:2.25;font-family:'Bebas Neue';-inkscape-font-specification:'Bebas Neue, Normal';font-variant-ligatures:normal;font-variant-caps:normal;font-variant-numeric:normal;font-feature-settings:normal;text-align:start;letter-spacing:7.9375px;word-spacing:0px;writing-mode:lr-tb;text-anchor:start;fill:#4d4d4d;fill-opacity:1;stroke:none;stroke-width:3.77952766;stroke-miterlimit:4;stroke-dasharray:none;stroke-opacity:1"
       d="m 174.30469,328.73075 1.57031,5.81808 c -3.58923,-1.321 -7.73316,-2.02735 -12.46289,-2.02735 -20.544,0 -30.14453,13.43902 -30.14453,33.79102 v 69.50391 c 0,8.26057 -7.1579,10.64325 -0.95843,18.86867 l 1.90315,2.11736 3.2757,2.6984 c 3.95972,3.08889 8.37126,5.81882 11.90458,7.4015 l 1.78711,0.72852 v 0 c 3.53348,1.29041 7.60283,1.97852 12.23242,1.97852 20.736,0 30.33594,-13.44097 30.33594,-33.79297 l -0.26786,-44.72936 -8.08007,-5.34252 -1.82587,10.52109 H 165.7168 l -12.11005,6.65096 25.93427,6.7885 v 26.88086 c 0,12.096 -4.80016,19.39062 -15.74414,19.39062 -10.75201,0 -15.74415,-7.29462 -15.74415,-19.39062 v -71.04102 c 0,-12.096 4.99215,-19.39258 15.74415,-19.39258 10.94398,0 15.74414,7.29658 15.74414,19.39258 v 3.73242 l -11.96497,1.69591 7.672,6.86073 h 18.5 V 366.3125 c 0,-9.79048 -2.22957,-17.97324 -6.84375,-23.83789 -2.70928,-4.18937 -6.58925,-8.72024 -12.59961,-13.74386 z"
       transform="matrix(0.26458333,0,0,0.26458333,0,87)"
       id="path825"
       inkscape:connector-curvature="0"
       sodipodi:nodetypes="ccsssccccccssccccccssssssccccscc" />
    <path
       inkscape:connector-curvature="0"
       id="path842"
       style="font-style:normal;font-variant:normal;font-weight:normal;font-stretch:normal;font-size:50.79999924px;line-height:2.25;font-family:'Bebas Neue';-inkscape-font-specification:'Bebas Neue, Normal';font-variant-ligatures:normal;font-variant-caps:normal;font-variant-numeric:normal;font-feature-settings:normal;text-align:start;letter-spacing:7.9375px;word-spacing:0px;writing-mode:lr-tb;text-anchor:start;fill:#ccff00;fill-opacity:1;stroke:#1a1a1a;stroke-width:1;stroke-miterlimit:4;stroke-dasharray:none;stroke-opacity:1"
       d="m 40.566724,172.71569 c -5.4356,0 -7.9756,3.556 -7.9756,8.9408 v 18.3896 c 0,5.3848 2.54,8.9408 7.9756,8.9408 5.4864,0 8.0264,-3.556 8.0264,-8.9408 v -10.4648 h -7.4168 v 3.556 h 3.6576 v 7.112 c 0,3.2004 -1.27,5.1308 -4.1656,5.1308 -2.8448,0 -4.1656,-1.9304 -4.1656,-5.1308 v -18.796 c 0,-3.2004 1.3208,-5.1308 4.1656,-5.1308 2.8956,0 4.1656,1.9304 4.1656,5.1308 v 3.2512 h 3.7592 v -3.048 c 0,-5.3848 -2.54,-8.9408 -8.0264,-8.9408 z" />
    <path
       style="font-style:normal;font-variant:normal;font-weight:normal;font-stretch:normal;font-size:50.79999924px;line-height:2.25;font-family:'Bebas Neue';-inkscape-font-specification:'Bebas Neue, Normal';font-variant-ligatures:normal;font-variant-caps:normal;font-variant-numeric:normal;font-feature-settings:normal;text-align:start;letter-spacing:7.9375px;word-spacing:0px;writing-mode:lr-tb;text-anchor:start;fill:#4d4d4d;fill-opacity:1;stroke:none;stroke-width:3.77952766;stroke-miterlimit:4;stroke-dasharray:none;stroke-opacity:1"
       d="m 390.67578,323.47461 -0.0466,12.93192 3.03292,-1.02567 z m -52.30859,11.90625 v 134.40039 h 55.29492 V 456.14844 H 353.3418 v -47.8086 h 32.83203 V 394.90039 H 353.3418 v -45.88867 h 40.32031 v -13.63086 z m 44.73242,47.56641 -0.9721,12.96958 4.04632,-1.01646 z m 7.61523,61.28906 -0.98242,12.05329 c -0.0893,0.53563 3.92969,-0.14118 3.92969,-0.14118 z m -52.52539,14.91992 -6.44782,2.40206 6.62556,8.22294 c 0,0 0.22405,-10.60268 -0.17774,-10.625 z"
       transform="matrix(0.26458333,0,0,0.26458333,0,87)"
       id="path829"
       inkscape:connector-curvature="0"
       sodipodi:nodetypes="ccccccccccccccccccccccccccccc" />
    <path
       style="font-style:normal;font-variant:normal;font-weight:normal;font-stretch:normal;font-size:50.79999924px;line-height:2.25;font-family:'Bebas Neue';-inkscape-font-specification:'Bebas Neue, Normal';font-variant-ligatures:normal;font-variant-caps:normal;font-variant-numeric:normal;font-feature-settings:normal;text-align:start;letter-spacing:7.9375px;word-spacing:0px;writing-mode:lr-tb;text-anchor:start;fill:#666666;fill-opacity:1;stroke:none;stroke-width:3.77952766;stroke-miterlimit:4;stroke-dasharray:none;stroke-opacity:1"
       d="m 551.73242,323.47461 c 0,0 1.76758,9.59724 1.76758,10.41797 0,0.82076 1.68359,1.48828 1.68359,1.48828 z m 44.875,0.0469 -0.57691,13.04746 3.50465,-1.18808 z m -60.43359,11.85938 v 134.40039 h 13.4414 V 361.10742 l 34.36719,108.67383 h 15.55274 V 335.38086 h -13.24805 v 97.15234 l -31.10352,-97.15234 z m 0.2486,125.63177 -6.85016,0.4112 c 0.12623,0.50509 6.66135,8.68104 6.66135,8.42849 0,-0.25247 0.18881,-8.83969 0.18881,-8.83969 z m 46.18323,0.15919 -4.79828,0.3151 6.17504,8.29433 z"
       transform="matrix(0.26458333,0,0,0.26458333,0,87)"
       id="path833"
       inkscape:connector-curvature="0"
       sodipodi:nodetypes="cscccccccccccccccccccsccccc" />
    <path
       style="font-style:normal;font-variant:normal;font-weight:normal;font-stretch:normal;font-size:50.79999924px;line-height:2.25;font-family:'Bebas Neue';-inkscape-font-specification:'Bebas Neue, Normal';font-variant-ligatures:normal;font-variant-caps:normal;font-variant-numeric:normal;font-feature-settings:normal;text-align:start;letter-spacing:7.9375px;word-spacing:0px;writing-mode:lr-tb;text-anchor:start;fill:#666666;fill-opacity:1;stroke:none;stroke-width:3.77952766;stroke-miterlimit:4;stroke-dasharray:none;stroke-opacity:1"
       d="m 760.80302,323.50028 c 0,0 -1.15989,12.52149 -1.15989,13.0572 0,0.53563 4.05218,-1.17662 4.05218,-1.17662 0,0 -2.8031,-11.43418 -2.89229,-11.88058 z m -61.61943,11.88058 v 13.63086 h 24.76758 v 120.76953 h 14.97656 V 349.01172 h 24.76758 v -13.63086 z m 0.36943,4.7048 -7.05274,0.62388 c 0,0 6.69531,8.66014 6.69531,8.30301 0,-0.35716 0.35743,-8.92689 0.35743,-8.92689 z m 24.86772,120.87269 -7.12163,0.64377 c 0,0 6.8306,8.53625 6.65206,8.17913 0.0347,-0.28614 0.46957,-8.8229 0.46957,-8.8229 z"
       transform="matrix(0.26458333,0,0,0.26458333,0,87)"
       id="path835"
       inkscape:connector-curvature="0"
       sodipodi:nodetypes="cscccccccccccccsccccc" />
    <path
       style="font-style:normal;font-variant:normal;font-weight:normal;font-stretch:normal;font-size:50.79999924px;line-height:2.25;font-family:'Bebas Neue';-inkscape-font-specification:'Bebas Neue, Normal';font-variant-ligatures:normal;font-variant-caps:normal;font-variant-numeric:normal;font-feature-settings:normal;text-align:start;letter-spacing:7.9375px;word-spacing:0px;writing-mode:lr-tb;text-anchor:start;fill:#808080;fill-opacity:1;stroke:none;stroke-width:3.77952766;stroke-miterlimit:4;stroke-dasharray:none;stroke-opacity:1"
       d="m 943.39258,323.52148 1.0604,12.07373 2.24819,-0.21435 c 0,0 -3.1748,-11.41294 -3.30859,-11.85938 z m -18.38867,11.85938 -25.72657,134.40039 h 13.82422 l 5.1836,-27.07227 h 33.98437 l 3.3418,17.44922 -4.52818,1.42578 6.36997,8.19727 h 14.97657 L 946.70117,335.38086 Z m 9.98437,16.89453 15.16797,77.56836 h -29.95117 z m -33.70731,108.37974 -8.81027,0.8312 6.80664,8.29492 z"
       transform="matrix(0.26458333,0,0,0.26458333,0,87)"
       id="path839"
       inkscape:connector-curvature="0"
       sodipodi:nodetypes="ccccccccccccccccccccccc" />
    <path
       inkscape:connector-curvature="0"
       id="path846"
       style="font-style:normal;font-variant:normal;font-weight:normal;font-stretch:normal;font-size:50.79999924px;line-height:2.25;font-family:'Bebas Neue';-inkscape-font-specification:'Bebas Neue, Normal';font-variant-ligatures:normal;font-variant-caps:normal;font-variant-numeric:normal;font-feature-settings:normal;text-align:start;letter-spacing:7.9375px;word-spacing:0px;writing-mode:lr-tb;text-anchor:start;fill:#ccff00;fill-opacity:1;stroke:#1a1a1a;stroke-width:1;stroke-miterlimit:4;stroke-dasharray:none;stroke-opacity:1"
       d="m 100.90918,188.81929 h -8.686797 v -12.1412 h 10.667997 v -3.6068 H 88.259983 v 35.56 h 14.630397 v -3.6068 H 92.222383 v -12.6492 h 8.686797 z" />
    <path
       inkscape:connector-curvature="0"
       id="path850"
       style="font-style:normal;font-variant:normal;font-weight:normal;font-stretch:normal;font-size:50.79999924px;line-height:2.25;font-family:'Bebas Neue';-inkscape-font-specification:'Bebas Neue, Normal';font-variant-ligatures:normal;font-variant-caps:normal;font-variant-numeric:normal;font-feature-settings:normal;text-align:start;letter-spacing:7.9375px;word-spacing:0px;writing-mode:lr-tb;text-anchor:start;fill:#ccff00;fill-opacity:1;stroke:#1a1a1a;stroke-width:1;stroke-miterlimit:4;stroke-dasharray:none;stroke-opacity:1"
       d="m 144.15269,208.63129 v -28.7528 l 9.0932,28.7528 h 4.1148 v -35.56 h -3.5052 v 25.7048 l -8.2296,-25.7048 h -5.0292 v 35.56 z" />
    <path
       inkscape:connector-curvature="0"
       id="path852"
       style="font-style:normal;font-variant:normal;font-weight:normal;font-stretch:normal;font-size:50.79999924px;line-height:2.25;font-family:'Bebas Neue';-inkscape-font-specification:'Bebas Neue, Normal';font-variant-ligatures:normal;font-variant-caps:normal;font-variant-numeric:normal;font-feature-settings:normal;text-align:start;letter-spacing:7.9375px;word-spacing:0px;writing-mode:lr-tb;text-anchor:start;fill:#ccff00;fill-opacity:1;stroke:#1a1a1a;stroke-width:1;stroke-miterlimit:4;stroke-dasharray:none;stroke-opacity:1"
       d="m 190.27909,208.63129 h 3.9624 v -31.9532 h 6.5532 v -3.6068 h -17.0688 v 3.6068 h 6.5532 z" />
    <path
       inkscape:connector-curvature="0"
       id="path856"
       style="font-style:normal;font-variant:normal;font-weight:normal;font-stretch:normal;font-size:50.79999924px;line-height:2.25;font-family:'Bebas Neue';-inkscape-font-specification:'Bebas Neue, Normal';font-variant-ligatures:normal;font-variant-caps:normal;font-variant-numeric:normal;font-feature-settings:normal;text-align:start;letter-spacing:7.9375px;word-spacing:0px;writing-mode:lr-tb;text-anchor:start;fill:#ccff00;fill-opacity:1;stroke:#1a1a1a;stroke-width:1;stroke-miterlimit:4;stroke-dasharray:none;stroke-opacity:1"
       d="m 241.69663,201.46849 h 8.9916 l 1.3716,7.1628 h 3.9624 l -6.8072,-35.56 h -5.7404 l -6.8072,35.56 h 3.6576 z m 0.508,-3.4036 3.9116,-20.5232 4.0132,20.5232 z" />
    <path
       style="fill:#4d4d4d;stroke:none;stroke-width:0.99999994px;stroke-linecap:butt;stroke-linejoin:miter;stroke-opacity:1"
       d="m 282.02651,331.7606 2.46177,10.51479 c -4.85551,-4.54456 -12.04448,-6.89648 -21.91992,-6.89648 h -29.95117 l -2.31836,125.64843 -4.43164,0.4668 4.27148,8.24024 17.45313,0.0449 v -57.40821 h 10.56054 c 12.48,0 19.58399,4.80075 19.58399,19.96875 v 21.11914 c 0,3.17619 0.10017,5.63722 0.29883,7.69336 l -3.74805,0.42969 3.92773,8.2168 2.01758,-0.0195 h 16.68555 c -2.496,-4.608 -4.20508,-10.17691 -4.20508,-16.12891 v -20.92773 c 0,-14.4 -4.60848,-24.38325 -16.89648,-28.03125 11.52,-3.648 16.70507,-12.86444 16.70507,-27.64844 v -10.94336 c 0,-6.27858 -1.49968,-13.34066 -2.46065,-17.52594 l -1.20229,-3.85799 c -1.61957,-5.40176 -4.50099,-10.42178 -6.83203,-12.95508 z m -34.43471,17.25112 h 14.59375 c 11.136,0 15.55078,6.33564 15.55078,18.43164 v 12.86328 c 0,14.592 -7.10382,18.43359 -19.00781,18.43359 H 247.5918 Z"
       transform="matrix(0.26458333,0,0,0.26458333,0,87)"
       id="path920"
       inkscape:connector-curvature="0"
       sodipodi:nodetypes="ccsccccccssscccccsscssccccsssscc" />
    <path
       inkscape:connector-curvature="0"
       id="path844"
       style="font-style:normal;font-variant:normal;font-weight:normal;font-stretch:normal;font-size:50.79999924px;line-height:2.25;font-family:'Bebas Neue';-inkscape-font-specification:'Bebas Neue, Normal';font-variant-ligatures:normal;font-variant-caps:normal;font-variant-numeric:normal;font-feature-settings:normal;text-align:start;letter-spacing:7.9375px;word-spacing:0px;writing-mode:lr-tb;text-anchor:start;fill:#ccff00;fill-opacity:1;stroke:#000000;stroke-width:1;stroke-miterlimit:4;stroke-dasharray:none;stroke-opacity:1;opacity:1"
       d="m 68.205098,173.07129 h -7.924799 v 35.56 h 3.9624 v -15.1892 h 2.794 c 3.301999,0 5.181599,1.27 5.181599,5.2832 v 5.588 c 0,2.3876 0.2032,3.302 0.6604,4.318 h 4.0132 c -0.6604,-1.2192 -0.7112,-2.6924 -0.7112,-4.2672 v -5.5372 c 0,-3.81 -1.2192,-6.4516 -4.4704,-7.4168 3.048,-0.9652 4.4196,-3.4036 4.4196,-7.3152 v -2.8956 c 0,-5.2832 -2.3368,-8.128 -7.9248,-8.128 z m -1.015999,16.764 h -2.9464 v -13.1572 h 3.860799 c 2.9464,0 4.1148,1.6764 4.1148,4.8768 v 3.4036 c 0,3.8608 -1.8796,4.8768 -5.029199,4.8768 z" />
    <path
       sodipodi:nodetypes="ccccccccccccccccccccccccccccc"
       inkscape:connector-curvature="0"
       id="path941"
       d="m 129.10647,172.3214 -0.0123,3.42157 0.80246,-0.27137 z m -13.83998,3.1502 v 35.5601 h 14.63012 v -3.60702 h -10.66809 v -12.64935 h 8.68681 v -3.55586 h -8.68681 v -12.14138 h 10.66809 v -3.60649 z m 11.83545,12.58527 -0.2572,3.43154 1.07059,-0.26894 z m 2.01487,16.21607 -0.25993,3.1891 c -0.0236,0.14172 1.03973,-0.0374 1.03973,-0.0374 z m -13.89734,3.94756 -1.70599,0.63555 1.75301,2.17565 c 0,0 0.0593,-2.80529 -0.047,-2.8112 z"
       style="font-style:normal;font-variant:normal;font-weight:normal;font-stretch:normal;font-size:50.79999924px;line-height:2.25;font-family:'Bebas Neue';-inkscape-font-specification:'Bebas Neue, Normal';font-variant-ligatures:normal;font-variant-caps:normal;font-variant-numeric:normal;font-feature-settings:normal;text-align:start;letter-spacing:7.9375px;word-spacing:0px;writing-mode:lr-tb;text-anchor:start;fill:#666666;fill-opacity:1;stroke:none;stroke-width:1;stroke-miterlimit:4;stroke-dasharray:none;stroke-opacity:1" />
    <path
       d="m 126.64935,188.5547 h -8.68679 v -12.1412 h 10.66799 v -3.6068 h -14.63039 v 35.56 h 14.63039 v -3.6068 h -10.66799 v -12.6492 h 8.68679 z"
       style="font-style:normal;font-variant:normal;font-weight:normal;font-stretch:normal;font-size:50.79999924px;line-height:2.25;font-family:'Bebas Neue';-inkscape-font-specification:'Bebas Neue, Normal';font-variant-ligatures:normal;font-variant-caps:normal;font-variant-numeric:normal;font-feature-settings:normal;text-align:start;letter-spacing:7.9375px;word-spacing:0px;writing-mode:lr-tb;text-anchor:start;fill:#ccff00;fill-opacity:1;stroke:#1a1a1a;stroke-width:1;stroke-miterlimit:4;stroke-dasharray:none;stroke-opacity:1"
       id="path943"
       inkscape:connector-curvature="0" />
    <path
       style="font-style:normal;font-variant:normal;font-weight:normal;font-stretch:normal;font-size:50.79999924px;line-height:2.25;font-family:'Bebas Neue';-inkscape-font-specification:'Bebas Neue, Normal';font-variant-ligatures:normal;font-variant-caps:normal;font-variant-numeric:normal;font-feature-settings:normal;text-align:start;letter-spacing:7.9375px;word-spacing:0px;writing-mode:lr-tb;text-anchor:start;fill:#808080;fill-opacity:1;stroke:none;stroke-width:1;stroke-miterlimit:4;stroke-dasharray:none;stroke-opacity:1"
       d="m 226.39258,172.32677 -0.0123,3.42157 0.80246,-0.27137 z m -13.83998,3.1502 v 35.5601 h 14.63012 v -3.60702 H 216.51463 V 194.7807 h 8.68681 v -3.55586 h -8.68681 v -12.14138 h 10.66809 v -3.60649 z m 11.83545,12.58527 -0.2572,3.43154 1.07059,-0.26894 z m 2.01487,16.21607 -0.25993,3.1891 c -0.0236,0.14172 1.03973,-0.0374 1.03973,-0.0374 z m -13.89734,3.94756 -1.70599,0.63555 1.75301,2.17565 c 0,0 0.0593,-2.80529 -0.047,-2.8112 z"
       id="path945"
       inkscape:connector-curvature="0"
       sodipodi:nodetypes="ccccccccccccccccccccccccccccc" />
    <path
       inkscape:connector-curvature="0"
       id="path947"
       style="font-style:normal;font-variant:normal;font-weight:normal;font-stretch:normal;font-size:50.79999924px;line-height:2.25;font-family:'Bebas Neue';-inkscape-font-specification:'Bebas Neue, Normal';font-variant-ligatures:normal;font-variant-caps:normal;font-variant-numeric:normal;font-feature-settings:normal;text-align:start;letter-spacing:7.9375px;word-spacing:0px;writing-mode:lr-tb;text-anchor:start;fill:#ccff00;fill-opacity:1;stroke:#1a1a1a;stroke-width:1;stroke-miterlimit:4;stroke-dasharray:none;stroke-opacity:1"
       d="m 223.93546,188.56007 h -8.68679 v -12.1412 h 10.66799 v -3.6068 h -14.63039 v 35.56 h 14.63039 v -3.6068 h -10.66799 v -12.6492 h 8.68679 z" />
  </g>
</svg>
