<?xml version="1.0" encoding="UTF-8" standalone="no"?>
<!-- Created with Inkscape (http://www.inkscape.org/) -->

<svg
   xmlns:dc="http://purl.org/dc/elements/1.1/"
   xmlns:cc="http://creativecommons.org/ns#"
   xmlns:rdf="http://www.w3.org/1999/02/22-rdf-syntax-ns#"
   xmlns:svg="http://www.w3.org/2000/svg"
   xmlns="http://www.w3.org/2000/svg"
   xmlns:sodipodi="http://sodipodi.sourceforge.net/DTD/sodipodi-0.dtd"
   xmlns:inkscape="http://www.inkscape.org/namespaces/inkscape"
   width="210mm"
   height="297mm"
   viewBox="0 0 210 297"
   version="1.1"
   id="svg8"
   inkscape:version="0.92.4 (5da689c313, 2019-01-14)"
   sodipodi:docname="0007_font_koku_mincho.svg">
  <defs
     id="defs2" />
  <sodipodi:namedview
     id="base"
     pagecolor="#ffffff"
     bordercolor="#666666"
     borderopacity="1.0"
     inkscape:pageopacity="0.0"
     inkscape:pageshadow="2"
     inkscape:zoom="0.7"
     inkscape:cx="522.18034"
     inkscape:cy="564.0626"
     inkscape:document-units="mm"
     inkscape:current-layer="layer1"
     showgrid="false"
     inkscape:window-width="1920"
     inkscape:window-height="1057"
     inkscape:window-x="-8"
     inkscape:window-y="-8"
     inkscape:window-maximized="1" />
  <metadata
     id="metadata5">
    <rdf:RDF>
      <cc:Work
         rdf:about="">
        <dc:format>image/svg+xml</dc:format>
        <dc:type
           rdf:resource="http://purl.org/dc/dcmitype/StillImage" />
        <dc:title></dc:title>
      </cc:Work>
    </rdf:RDF>
  </metadata>
  <g
     inkscape:label="レイヤー 1"
     inkscape:groupmode="layer"
     id="layer1">
    <g
       aria-label="クレペリン"
       style="font-style:normal;font-weight:normal;font-size:10.58333302px;line-height:1.25;font-family:sans-serif;letter-spacing:0px;word-spacing:0px;fill:#808080;fill-opacity:1;stroke:none;stroke-width:0.26458332"
       id="text829"
       transform="translate(-1.1339286,-13.229167)">
      <path
         d="m 44.159932,120.65798 c 0.7874,0.4826 1.3462,1.1684 1.3462,1.6764 0,1.7272 -3.1242,6.6548 -7.2898,10.3124 l 0.2794,0.4318 c 3.429,-1.3462 6.5786,-3.937 8.9154,-6.6802 0.4826,0.381 0.9144,0.6604 1.1938,0.6604 0.5588,0 0.9144,-0.1524 1.4478,-0.3556 0.635,-0.254 2.0574,-0.6604 2.5908,-0.6604 0.3302,0 0.4826,0.1524 0.3302,0.5334 -2.1844,5.461 -8.0518,11.811 -14.4526,15.3162 l 0.2794,0.4318 c 8.89,-2.8702 14.1478,-7.9756 18.034,-14.5288 0.4826,-0.8128 1.5494,-1.1176 1.5494,-1.9558 0,-1.2192 -3.0988,-2.7432 -3.9116,-2.7432 -0.635,0 -1.2192,0.7112 -1.8288,0.9652 -0.6096,0.254 -2.9972,0.635 -3.9624,0.7112 0.3556,-0.4572 0.6858,-0.9398 0.9652,-1.397 0.4318,-0.6858 0.762,-0.7366 0.762,-1.3208 0,-0.762 -2.2606,-1.9812 -4.318,-1.9812 -0.9398,0 -1.397,0.127 -1.905,0.3048 z"
         style="font-style:normal;font-variant:normal;font-weight:900;font-stretch:normal;font-size:25.39999962px;font-family:'Noto Serif JP';-inkscape-font-specification:'Noto Serif JP, Heavy';font-variant-ligatures:normal;font-variant-caps:normal;font-variant-numeric:normal;font-feature-settings:normal;text-align:start;writing-mode:lr-tb;text-anchor:start;fill:#808080;stroke-width:0.26458332"
         id="path835"
         inkscape:connector-curvature="0" />
      <path
         d="m 63.232156,122.55429 c 1.277824,0.52221 0.845811,1.8625 0.922011,2.9039 0.127,1.905 0.2032,7.86324 0,10.42864 -0.0508,1.99675 0.187436,3.78266 -0.105325,4.45051 0,0 0.453237,0.0358 1.948813,0.083 0.964718,0.0305 1.323313,-0.21945 3.893504,-1.35558 4.492148,-2.34917 12.424373,-4.80045 13.482139,-12.39519 v 0 c -2.84446,5.56168 -11.7348,7.95019 -15.2146,8.83919 -0.3302,0.0762 -0.4826,-0.127 -0.4826,-0.508 0,-2.54 -0.306021,-7.37532 -0.128219,-8.67072 -0.09885,-2.46585 2.701089,-4.12878 3.203684,-4.10906 0.354929,0.0139 -5.180548,0.0195 -6.089317,-0.0228 -0.600155,-0.028 -0.627949,-0.0126 -2.164195,-0.006 z"
         style="font-style:normal;font-variant:normal;font-weight:900;font-stretch:normal;font-size:25.39999962px;font-family:'Noto Serif JP';-inkscape-font-specification:'Noto Serif JP, Heavy';font-variant-ligatures:normal;font-variant-caps:normal;font-variant-numeric:normal;font-feature-settings:normal;text-align:start;writing-mode:lr-tb;text-anchor:start;fill:#808080;stroke-width:0.26458332"
         id="path837"
         inkscape:connector-curvature="0"
         sodipodi:nodetypes="cccssccccscsscc" />
      <path
         d="m 106.16133,128.40498 c 1.7018,0 3.0734,-1.3716 3.0734,-3.0734 0,-1.7018 -1.3716,-3.0734 -3.0734,-3.0734 -1.7018,0 -3.0734,1.3716 -3.0734,3.0734 0,1.7018 1.3716,3.0734 3.0734,3.0734 z m 0,-5.0038 c 1.0668,0 1.9304,0.8636 1.9304,1.9304 0,1.0668 -0.8636,1.9304 -1.9304,1.9304 -1.0668,0 -1.9304,-0.8636 -1.9304,-1.9304 0,-1.0668 0.8636,-1.9304 1.9304,-1.9304 z m -17.932399,10.4648 c 0.7112,1.1176 2.0828,1.9812 3.2512,1.9812 1.0414,0 1.4478,-0.8128 1.9558,-1.7018 0.6858,-1.27 2.3368,-4.0132 3.1496,-5.1054 0.381,-0.508 0.6096,-0.7112 0.8382,-0.7112 0.254,0 0.635,0.2032 1.143,0.7112 1.1938,1.1684 5.054599,5.6388 6.527799,7.3152 2.1336,2.3368 3.429,3.302 4.5212,3.302 0.9144,0 1.524,-0.6858 1.524,-1.7018 0,-1.27 -0.6604,-2.5654 -1.8034,-3.302 -2.159,-1.4224 -5.6134,-4.5212 -9.2456,-7.7724 -0.965199,-0.8636 -1.803399,-1.3208 -2.768599,-1.3208 -0.7874,0 -1.4224,0.4572 -2.1336,1.1938 -0.7112,0.7366 -2.9464,3.3274 -4.2926,4.4704 -0.6858,0.5842 -1.1938,0.8128 -1.5494,0.8128 -0.2794,0 -0.8636,-0.2032 -1.3462,-0.6096 l -0.254,0.1778 c -0.0254,0.9906 0.1016,1.6764 0.4826,2.2606 z"
         style="font-style:normal;font-variant:normal;font-weight:900;font-stretch:normal;font-size:25.39999962px;font-family:'Noto Serif JP';-inkscape-font-specification:'Noto Serif JP, Heavy';font-variant-ligatures:normal;font-variant-caps:normal;font-variant-numeric:normal;font-feature-settings:normal;text-align:start;writing-mode:lr-tb;text-anchor:start;fill:#808080;stroke-width:0.26458332"
         id="path839"
         inkscape:connector-curvature="0" />
      <path
         d="m 131.20573,131.12278 c 0.1016,-1.524 0.254,-5.1308 0.3556,-6.5786 0.0508,-0.762 0.6096,-1.0922 0.6096,-1.8034 0,-0.889 -2.5654,-2.3114 -3.683,-2.3114 -0.762,0 -1.9812,0.762 -2.7432,1.397 l 0.0254,0.381 c 0.5334,0.2032 1.0922,0.4064 1.524,0.6858 0.4826,0.3048 0.5334,0.5334 0.5842,1.2192 0.0762,1.2954 0.127,5.3594 -0.0508,7.0612 -0.4318,4.9276 -3.048,8.2296 -7.7978,10.8712 l 0.2286,0.4064 c 6.5532,-1.6002 10.5664,-5.1562 10.9474,-11.3284 z m -12.5984,-7.7724 c 0.3556,0.254 0.508,0.4826 0.5842,0.9398 0.1524,1.0922 0.1524,3.8862 0.1524,5.1816 0,1.5748 -0.4318,2.159 -0.4318,2.794 0,1.778 1.016,3.2766 2.0066,3.2766 1.0668,0 1.6764,-0.6858 1.6764,-2.2098 0,-2.0828 -0.0254,-5.969 0.0508,-7.0866 0.0508,-1.0922 0.7112,-1.524 0.7112,-2.286 0,-1.0668 -2.7432,-2.5146 -3.9624,-2.5146 -0.7874,0 -1.6256,0.381 -2.3114,0.7366 v 0.381 c 0.5842,0.2286 1.1684,0.5334 1.524,0.7874 z"
         style="font-style:normal;font-variant:normal;font-weight:900;font-stretch:normal;font-size:25.39999962px;font-family:'Noto Serif JP';-inkscape-font-specification:'Noto Serif JP, Heavy';font-variant-ligatures:normal;font-variant-caps:normal;font-variant-numeric:normal;font-feature-settings:normal;text-align:start;writing-mode:lr-tb;text-anchor:start;fill:#808080;stroke-width:0.26458332"
         id="path841"
         inkscape:connector-curvature="0" />
      <path
         d="m 141.56893,122.76618 c 2.54,2.032 2.9972,2.9972 4.191,4.7752 0.635,0.9398 1.2446,1.4986 2.286,1.4986 1.2192,0 2.0574,-0.9906 2.0574,-2.0828 0,-2.9718 -4.5212,-4.3434 -8.3312,-4.5466 z m 2.921,13.8684 c -0.9906,0 -1.9304,-1.0414 -2.4384,-1.524 l -0.3302,0.2032 c -0.0254,0.889 0.2286,1.9812 0.5588,2.667 0.5334,1.1176 2.413,2.794 4.1148,2.794 0.8382,0 1.1684,-0.9398 2.159,-1.5494 6.0452,-3.6576 10.6172,-8.3058 13.4112,-13.9446 l -0.4064,-0.2794 c -3.6576,4.6228 -13.9446,11.6332 -17.0688,11.6332 z"
         style="font-style:normal;font-variant:normal;font-weight:900;font-stretch:normal;font-size:25.39999962px;font-family:'Noto Serif JP';-inkscape-font-specification:'Noto Serif JP, Heavy';font-variant-ligatures:normal;font-variant-caps:normal;font-variant-numeric:normal;font-feature-settings:normal;text-align:start;writing-mode:lr-tb;text-anchor:start;fill:#808080;stroke-width:0.26458332"
         id="path843"
         inkscape:connector-curvature="0" />
    </g>
    <text
       xml:space="preserve"
       style="font-style:normal;font-variant:normal;font-weight:900;font-stretch:normal;font-size:25.39999962px;line-height:1.25;font-family:'Noto Serif JP';-inkscape-font-specification:'Noto Serif JP, Heavy';font-variant-ligatures:normal;font-variant-caps:normal;font-variant-numeric:normal;font-feature-settings:normal;text-align:start;letter-spacing:0px;word-spacing:0px;writing-mode:lr-tb;text-anchor:start;fill:#000000;fill-opacity:1;stroke:none;stroke-width:0.26458332"
       x="37.150463"
       y="167.10701"
       id="text833"><tspan
         sodipodi:role="line"
         id="tspan831"
         x="37.150463"
         y="167.10701"
         style="font-style:normal;font-variant:normal;font-weight:900;font-stretch:normal;font-size:25.39999962px;font-family:'Noto Serif JP';-inkscape-font-specification:'Noto Serif JP, Heavy';font-variant-ligatures:normal;font-variant-caps:normal;font-variant-numeric:normal;font-feature-settings:normal;text-align:start;writing-mode:lr-tb;text-anchor:start;stroke-width:0.26458332">検査</tspan></text>
    <text
       xml:space="preserve"
       style="font-style:normal;font-weight:normal;font-size:10.58333302px;line-height:1.25;font-family:sans-serif;letter-spacing:0px;word-spacing:0px;fill:#000000;fill-opacity:1;stroke:none;stroke-width:0.26458332"
       x="33.450893"
       y="94.971718"
       id="text848"><tspan
         sodipodi:role="line"
         id="tspan846"
         x="33.450893"
         y="94.971718"
         style="font-style:normal;font-variant:normal;font-weight:bold;font-stretch:normal;font-size:25.39999962px;font-family:'Noto Sans JP';-inkscape-font-specification:'Noto Sans JP, Bold';font-variant-ligatures:normal;font-variant-caps:normal;font-variant-numeric:normal;font-feature-settings:normal;text-align:start;writing-mode:lr-tb;text-anchor:start;stroke-width:0.26458332">クレペリン</tspan></text>
    <text
       xml:space="preserve"
       style="font-style:normal;font-weight:normal;font-size:10.58333302px;line-height:1.25;font-family:sans-serif;letter-spacing:0px;word-spacing:0px;fill:#000000;fill-opacity:1;stroke:none;stroke-width:0.26458332"
       x="33.261906"
       y="63.599701"
       id="text852"><tspan
         sodipodi:role="line"
         id="tspan850"
         x="33.261906"
         y="63.599701"
         style="font-style:normal;font-variant:normal;font-weight:900;font-stretch:normal;font-size:25.39999962px;font-family:'Noto Serif JP';-inkscape-font-specification:'Noto Serif JP, Heavy';font-variant-ligatures:normal;font-variant-caps:normal;font-variant-numeric:normal;font-feature-settings:normal;text-align:start;writing-mode:lr-tb;text-anchor:start;stroke-width:0.26458332">クレペリン</tspan></text>
    <text
       xml:space="preserve"
       style="font-style:normal;font-weight:normal;font-size:10.58333302px;line-height:1.25;font-family:sans-serif;letter-spacing:0px;word-spacing:0px;fill:#000000;fill-opacity:1;stroke:none;stroke-width:0.26458332"
       x="51.404758"
       y="196.45833"
       id="text856"><tspan
         sodipodi:role="line"
         id="tspan854"
         x="51.404758"
         y="196.45833"
         style="font-style:normal;font-variant:normal;font-weight:normal;font-stretch:normal;font-size:25.39999962px;font-family:'Koku Mincho Regular';-inkscape-font-specification:'Koku Mincho Regular, Normal';font-variant-ligatures:normal;font-variant-caps:normal;font-variant-numeric:normal;font-feature-settings:normal;text-align:start;writing-mode:lr-tb;text-anchor:start;fill:#000000;stroke:none;stroke-width:0.26458332">クレペリン</tspan></text>
    <text
       xml:space="preserve"
       style="font-style:normal;font-weight:normal;font-size:10.58333302px;line-height:1.25;font-family:sans-serif;letter-spacing:0px;word-spacing:0px;fill:#000000;fill-opacity:1;stroke:none;stroke-width:0.5;stroke-miterlimit:4;stroke-dasharray:none"
       x="44.979168"
       y="223.67262"
       id="text860"><tspan
         sodipodi:role="line"
         id="tspan858"
         x="44.979168"
         y="223.67262"
         style="font-style:normal;font-variant:normal;font-weight:normal;font-stretch:normal;font-size:25.39999962px;font-family:'Koku Mincho Regular';-inkscape-font-specification:'Koku Mincho Regular, Normal';font-variant-ligatures:normal;font-variant-caps:normal;font-variant-numeric:normal;font-feature-settings:normal;text-align:start;letter-spacing:0.79374999px;word-spacing:0px;writing-mode:lr-tb;text-anchor:start;stroke-width:0.5;stroke:#000000;fill:#000000;stroke-opacity:1;stroke-miterlimit:4;stroke-dasharray:none;stroke-linejoin:miter"
         dx="0">クレペリン検査</tspan></text>
  </g>
</svg>
