<?xml version="1.0" encoding="UTF-8" standalone="no"?>
<!-- Created with Inkscape (http://www.inkscape.org/) -->

<svg
   xmlns:dc="http://purl.org/dc/elements/1.1/"
   xmlns:cc="http://creativecommons.org/ns#"
   xmlns:rdf="http://www.w3.org/1999/02/22-rdf-syntax-ns#"
   xmlns:svg="http://www.w3.org/2000/svg"
   xmlns="http://www.w3.org/2000/svg"
   xmlns:sodipodi="http://sodipodi.sourceforge.net/DTD/sodipodi-0.dtd"
   xmlns:inkscape="http://www.inkscape.org/namespaces/inkscape"
   width="210mm"
   height="297mm"
   viewBox="0 0 210 297"
   version="1.1"
   id="svg8"
   inkscape:version="0.92.4 (5da689c313, 2019-01-14)"
   sodipodi:docname="0010_wavey_lines_effect.svg">
  <defs
     id="defs2">
    <inkscape:path-effect
       effect="lattice2"
       gridpoint0="51.858333,126.60833"
       gridpoint1="156.10417,126.60833"
       gridpoint2="51.858333,252.8846"
       gridpoint3="156.10417,252.8846"
       gridpoint4="77.919792,126.60833"
       gridpoint5="130.04271,126.60833"
       gridpoint6="77.919792,252.8846"
       gridpoint7="130.04271,252.8846"
       gridpoint8x9="103.98125,126.60833"
       gridpoint10x11="103.98125,252.8846"
       gridpoint12="51.858333,158.1774"
       gridpoint13="156.10417,158.1774"
       gridpoint14="51.858333,221.31553"
       gridpoint15="156.10417,221.31553"
       gridpoint16="77.919792,158.1774"
       gridpoint17="125.54479,185.42948"
       gridpoint18="80.565625,227.66553"
       gridpoint19="123.16354,229.51761"
       gridpoint20x21="93.397917,149.71073"
       gridpoint22x23="116.68125,206.76345"
       gridpoint24x26="51.858333,189.74647"
       gridpoint25x27="156.10417,189.74647"
       gridpoint28x30="82.682292,194.50897"
       gridpoint29x31="135.06979,200.59439"
       gridpoint32x33x34x35="112.18333,177.04647"
       id="path-effect4583"
       is_visible="true"
       horizontal_mirror="false"
       vertical_mirror="false"
       live_update="true" />
  </defs>
  <sodipodi:namedview
     id="base"
     pagecolor="#ffffff"
     bordercolor="#666666"
     borderopacity="1.0"
     inkscape:pageopacity="1"
     inkscape:pageshadow="2"
     inkscape:zoom="0.5"
     inkscape:cx="114.03367"
     inkscape:cy="628.6331"
     inkscape:document-units="mm"
     inkscape:current-layer="layer1"
     showgrid="false"
     objecttolerance="1"
     guidetolerance="10000"
     inkscape:window-width="1738"
     inkscape:window-height="865"
     inkscape:window-x="105"
     inkscape:window-y="25"
     inkscape:window-maximized="0" />
  <metadata
     id="metadata5">
    <rdf:RDF>
      <cc:Work
         rdf:about="">
        <dc:format>image/svg+xml</dc:format>
        <dc:type
           rdf:resource="http://purl.org/dc/dcmitype/StillImage" />
        <dc:title></dc:title>
      </cc:Work>
    </rdf:RDF>
  </metadata>
  <g
     inkscape:label="レイヤー 1"
     inkscape:groupmode="layer"
     id="layer1">
    <path
       style="color:#000000;font-style:normal;font-variant:normal;font-weight:normal;font-stretch:normal;font-size:medium;line-height:normal;font-family:sans-serif;font-variant-ligatures:normal;font-variant-position:normal;font-variant-caps:normal;font-variant-numeric:normal;font-variant-alternates:normal;font-feature-settings:normal;text-indent:0;text-align:start;text-decoration:none;text-decoration-line:none;text-decoration-style:solid;text-decoration-color:#000000;letter-spacing:normal;word-spacing:normal;text-transform:none;writing-mode:lr-tb;direction:ltr;text-orientation:mixed;dominant-baseline:auto;baseline-shift:baseline;text-anchor:start;white-space:normal;shape-padding:0;clip-rule:nonzero;display:inline;overflow:visible;visibility:visible;opacity:1;isolation:auto;mix-blend-mode:normal;color-interpolation:sRGB;color-interpolation-filters:linearRGB;solid-color:#000000;solid-opacity:1;vector-effect:none;fill:#de8787;fill-opacity:1;fill-rule:nonzero;stroke:none;stroke-width:0.69328529;stroke-linecap:round;stroke-linejoin:miter;stroke-miterlimit:4;stroke-dasharray:none;stroke-dashoffset:0;stroke-opacity:1;color-rendering:auto;image-rendering:auto;shape-rendering:auto;text-rendering:auto;enable-background:accumulate"
       d="m 76.929151,94.075203 a 0.34667731,0.34667731 0 1 0 -0.001,0.69295 c 18.217392,0.005 54.631019,0 54.631019,0 a 0.34667731,0.34667731 0 1 0 0,-0.69295 c 0,0 -36.412997,0.005 -54.629996,0 z m 10e-4,2.13411 a 0.34698761,0.34698761 0 1 0 -0.0031,0.69396 c 4.574112,0.0188 10.016582,-0.0475 15.780082,0.0194 6.791977,0.0789 10.870717,0.26851 17.715617,0.48516 6.21378,0.19667 10.74169,0.24241 15.00424,0.0318 3.85084,-0.19034 6.1843,-0.54044 6.1843,-0.54044 a 0.34676514,0.34676514 0 1 0 -0.10338,-0.68578 c 0,0 -2.29182,0.34432 -6.1147,0.53327 -4.23339,0.20924 -8.74242,0.16471 -14.94896,-0.0317 -6.84082,-0.21652 -10.9283,-0.40721 -17.729947,-0.48619 -5.77388,-0.067 -11.21903,-5.2e-4 -15.784181,-0.0194 z m 15.589702,2.0993 c -5.37814,-0.0783 -10.23108,0.11378 -15.586631,0.0358 a 0.34667731,0.34667731 0 1 0 -0.0092,0.69295 c 5.378141,0.0783 10.230061,-0.11277 15.585611,-0.0348 6.558117,0.0943 10.768807,0.45489 17.557987,0.9038 6.28649,0.415657 10.88823,0.558787 15.26832,0.167857 3.94375,-0.351987 6.32145,-1.050157 6.32145,-1.050167 a 0.34671833,0.34671833 0 1 0 -0.1955,-0.6653 c 0,0 -2.29953,0.67757 -6.18736,1.02457 -4.32229,0.38577 -8.88616,0.246 -15.16085,-0.16888 -6.7836,-0.44854 -11.01454,-0.81121 -17.593817,-0.90585 z m 0.008,2.020487 c -5.62813,-0.0516 -10.9413,0.29032 -15.588677,0.15046 a 0.34667731,0.34667731 0 1 0 -0.0215,0.69294 c 4.696997,0.14136 10.008097,-0.20171 15.604037,-0.15046 6.444687,0.059 10.727447,0.56775 17.444377,1.25999 6.30046,0.64933 10.8934,0.93072 15.33587,0.38793 3.98575,-0.48699 6.39515,-1.52611 6.39515,-1.52611 a 0.3468196,0.3468196 0 1 0 -0.27534,-0.63665 c 0,0 -2.3027,0.99715 -6.20477,1.47391 -4.35662,0.5323 -8.89375,0.25894 -15.18028,-0.38895 -6.71239,-0.69178 -11.0305,-1.20373 -17.508867,-1.26306 z m 0.17708,1.97136 c -5.6581,0.0151 -11.04845,0.54621 -15.759616,0.31423 a 0.34667731,0.34667731 0 1 0 -0.03377,0.69192 c 4.788466,0.23578 10.179766,-0.29713 15.795446,-0.31218 6.420957,-0.0172 10.749807,0.61373 17.368637,1.55477 6.26493,0.89073 10.77998,1.34337 15.23863,0.67555 3.98511,-0.59691 6.41459,-1.96215 6.41459,-1.96215 a 0.34667731,0.34667731 0 1 0 -0.33981,-0.6039 c 0,0 -2.30328,1.30003 -6.17714,1.88026 -4.34533,0.65086 -8.78681,0.21221 -15.03801,-0.67656 -6.61776,-0.94089 -11.00161,-1.5793 -17.468947,-1.56194 z m 0.31525,1.93554 c -5.74067,0.11155 -11.28266,0.85189 -16.067701,0.51382 a 0.34667731,0.34667731 0 1 0 -0.04811,0.6909 c 4.892671,0.34567 10.439841,-0.40122 16.129121,-0.51178 6.467007,-0.12567 10.829557,0.60469 17.324617,1.79428 6.18866,1.13348 10.57032,1.77997 15.00731,1.01229 3.94967,-0.68335 6.39003,-2.35416 6.39003,-2.35416 a 0.34679179,0.34679179 0 1 0 -0.39202,-0.57217 c 0,0 -2.30572,1.58324 -6.11674,2.2426 -4.29677,0.74341 -8.58637,0.12116 -14.7637,-1.01024 -6.49982,-1.19047 -10.93739,-1.93235 -17.462807,-1.80554 z m 5.05839,1.90789 c -1.4536,-0.0627 -2.97862,-0.0643 -4.63771,0.001 -5.86487,0.23084 -11.61466,1.19342 -16.480193,0.74002 a 0.34667731,0.34667731 0 1 0 -0.06448,0.68988 c 5.004733,0.46637 10.766143,-0.50945 16.572323,-0.73798 6.567297,-0.25849 10.959137,0.54711 17.308247,1.97955 6.07986,1.37169 10.28314,2.22881 14.66851,1.38486 3.88676,-0.748 6.33067,-2.70013 6.33067,-2.70013 a 0.34704019,0.34704019 0 1 0 -0.43297,-0.54248 c 0,0 -2.30785,1.84588 -6.02871,2.56195 -4.21879,0.81189 -8.31092,-0.0106 -14.38397,-1.38077 -4.77137,-1.07648 -8.49089,-1.80772 -12.851707,-1.99593 z m 0.593657,1.81681 c -1.477117,-0.0505 -3.034217,-0.0276 -4.730847,0.0757 -6.46865,0.39396 -11.54301,1.61304 -16.973548,0.98363 a 0.3467323,0.3467323 0 1 0 -0.07984,0.68885 c 5.580218,0.64676 10.693318,-0.59059 17.096378,-0.98056 6.708727,-0.40858 11.127647,0.4502 17.313367,2.11466 5.94632,1.60004 9.9378,2.67622 14.24885,1.77791 3.80316,-0.79248 6.24469,-2.99901 6.24469,-2.99901 a 0.34677346,0.34677346 0 1 0 -0.46469,-0.51485 c 0,0 -2.31102,2.08296 -5.92125,2.83524 -4.11867,0.85823 -7.9815,-0.16875 -13.92745,-1.76869 -4.65624,-1.25291 -8.3743,-2.06152 -12.80566,-2.21292 z m 0.66122,1.79838 c -1.504347,-0.0345 -3.097257,0.0166 -4.838327,0.16069 -6.6539,0.55082 -12.0044,1.99783 -17.519099,1.23646 a 0.34668227,0.34668227 0 1 0 -0.09519,0.68679 c 5.691249,0.78576 11.087859,-0.68733 17.671609,-1.23235 6.879767,-0.56951 11.326747,0.32166 17.336907,2.20268 5.79535,1.81379 9.55214,3.11147 13.7729,2.17914 3.70512,-0.81842 6.14131,-3.24773 6.14131,-3.24773 a 0.34667731,0.34667731 0 1 0 -0.48823,-0.4913 c 0,0 -2.31712,2.29258 -5.80251,3.06246 -4.00327,0.88429 -7.61361,-0.34757 -13.41671,-2.16378 -4.53313,-1.41875 -8.24963,-2.28966 -12.76266,-2.39306 z m 0.70011,1.79223 c -1.53391,-0.0157 -3.166217,0.0656 -4.956037,0.2518 -6.85589,0.71315 -12.49619,2.37888 -18.094334,1.48824 a 0.34673182,0.34673182 0 1 0 -0.109521,0.68476 c 5.800055,0.92275 11.492575,-0.77756 18.275505,-1.48313 7.070127,-0.73544 11.544907,0.16974 17.372727,2.24772 5.63383,2.00879 9.14255,3.52383 13.26318,2.57628 3.59831,-0.82744 6.02769,-3.4463 6.02769,-3.4463 a 0.34667731,0.34667731 0 1 0 -0.50666,-0.47288 c 0,0 -2.32442,2.47279 -5.67661,3.24363 -3.87886,0.89196 -7.22324,-0.53884 -12.87422,-2.55375 -4.4058,-1.57094 -8.12,-2.48942 -12.72172,-2.53637 z m 0.50256,1.79429 c -1.56694,0.0153 -3.173517,0.13788 -4.869027,0.34801 -7.0654,0.87561 -13.00042,2.74768 -18.677763,1.73389 a 0.34674519,0.34674519 0 1 0 -0.121803,0.68271 c 5.902646,1.05402 11.894356,-0.86134 18.885536,-1.72775 3.350657,-0.41525 6.313537,-0.4839 9.318417,-0.0522 2.98969,0.42953 5.54382,1.28549 8.09935,2.30504 2.56914,1.02497 4.69005,2.01965 6.89874,2.64588 2.17887,0.61778 4.04726,0.73407 5.83936,0.31218 3.48788,-0.8211 5.90999,-3.59573 5.90999,-3.59573 a 0.34667731,0.34667731 0 1 0 -0.51997,-0.45855 c 0,0 -2.3327,2.62165 -5.54867,3.37874 -1.66097,0.39101 -3.3909,0.29184 -5.49238,-0.304 -2.13479,-0.60527 -4.24005,-1.589 -6.83015,-2.62234 -2.57914,-1.02896 -5.19481,-1.90793 -8.25801,-2.34802 -1.53935,-0.22115 -3.06668,-0.31315 -4.63362,-0.29786 z m 0.69908,1.81168 c -1.59751,0.0382 -3.244807,0.19314 -4.990827,0.44116 -7.27442,1.03332 -13.49943,3.09305 -19.248902,1.96521 a 0.34667731,0.34667731 0 1 0 -0.134085,0.67964 c 5.995827,1.17616 12.279997,-0.93527 19.480227,-1.95805 3.451447,-0.49027 6.475917,-0.60839 9.489337,-0.18219 2.99545,0.42366 5.50767,1.31943 7.98063,2.40534 2.49992,1.09775 4.49101,2.16523 6.61112,2.87004 2.07907,0.69116 3.86884,0.85502 5.60599,0.4432 3.37834,-0.80091 5.79535,-3.694 5.79535,-3.694 a 0.34677885,0.34677885 0 1 0 -0.52918,-0.44832 c 0,0 -2.34426,2.73724 -5.42585,3.4678 -1.59446,0.37799 -3.22887,0.23752 -5.22728,-0.42682 -2.04374,-0.67942 -4.02491,-1.73694 -6.55174,-2.8465 -2.5029,-1.09906 -5.08529,-2.0214 -8.1618,-2.45652 -1.54736,-0.21885 -3.09547,-0.29815 -4.69299,-0.25999 z m 0.66429,1.83523 c -1.627,0.0613 -3.3139,0.24647 -5.108537,0.5302 -7.47589,1.18191 -13.97819,3.40622 -19.790364,2.17607 a 0.34689828,0.34689828 0 1 0 -0.144321,0.67862 c 6.076995,1.2862 12.640455,-0.99959 20.043175,-2.16993 3.549057,-0.5611 6.632437,-0.72782 9.655157,-0.31321 3.00233,0.41182 5.47491,1.33471 7.86906,2.47392 2.33303,1.11014 4.40023,2.32203 6.33578,3.06145 1.98274,0.75744 3.69504,0.97066 5.37979,0.57523 3.27368,-0.76838 5.68787,-3.74619 5.68787,-3.74619 a 0.34683531,0.34683531 0 1 0 -0.53531,-0.44116 c 0,0 -2.35775,2.81859 -5.31121,3.51181 -1.53126,0.35941 -3.07422,0.17833 -4.97446,-0.5476 -1.85203,-0.70752 -3.91886,-1.91425 -6.2846,-3.03995 -2.43039,-1.15645 -4.98278,-2.11048 -8.07275,-2.53431 -1.55526,-0.21333 -3.12228,-0.27625 -4.74928,-0.21495 z m 0.61004,1.86491 c -1.65448,0.084 -3.37914,0.29781 -5.219087,0.61413 -7.66362,1.3175 -14.42226,3.68185 -20.28576,2.36338 a 0.34677297,0.34677297 0 1 0 -0.152509,0.67657 c 6.144089,1.38156 12.963749,-1.05099 20.555979,-2.35622 3.640447,-0.62585 6.780477,-0.84086 9.812777,-0.44319 3.00983,0.39471 5.44558,1.33313 7.76671,2.51179 2.26259,1.14894 4.23178,2.42169 6.07887,3.21702 1.89272,0.81498 3.53335,1.07356 5.16996,0.70011 3.17725,-0.72499 5.59166,-3.74927 5.59166,-3.74927 a 0.34667731,0.34667731 0 1 0 -0.53737,-0.43705 c 0,0 -2.37329,2.86375 -5.20885,3.51078 -1.47336,0.3362 -2.93228,0.11807 -4.74211,-0.66122 -1.76337,-0.75927 -3.73762,-2.02998 -6.03895,-3.19859 -2.36341,-1.20013 -4.88693,-2.17448 -7.98985,-2.5814 -1.56272,-0.20494 -3.147,-0.25084 -4.80147,-0.16684 z m 0.53838,1.90176 c -1.67919,0.10562 -3.43563,0.34592 -5.316317,0.6909 -7.83223,1.43667 -14.82191,3.91085 -20.723839,2.51998 a 0.34667731,0.34667731 0 1 0 -0.158651,0.67452 c 6.19545,1.46004 13.24418,-1.08881 21.00736,-2.51282 3.723027,-0.68292 6.915367,-0.94309 9.957107,-0.56705 3.01748,0.37304 5.41787,1.31626 7.67356,2.51999 2.19937,1.17366 4.08126,2.49041 5.84857,3.33166 1.81162,0.86234 3.38749,1.16545 4.98163,0.81884 3.09178,-0.67225 5.5108,-3.70935 5.5108,-3.70935 a 0.34667731,0.34667731 0 1 0 -0.53737,-0.43706 c 0,0 -2.38939,2.87492 -5.12082,3.46882 -1.42258,0.30931 -2.80678,0.0556 -4.53638,-0.76767 -1.68467,-0.8019 -3.57618,-2.11896 -5.81992,-3.3163 -2.3036,-1.2293 -4.80037,-2.21169 -7.91511,-2.59675 -1.5695,-0.19403 -3.17142,-0.22333 -4.85062,-0.11771 z m 0.45446,1.94475 c -1.70049,0.12557 -3.48652,0.38841 -5.402297,0.75742 -7.97714,1.53654 -15.16295,4.08964 -21.089249,2.64384 a 0.34668055,0.34668055 0 1 0 -0.164791,0.67349 c 6.22987,1.51986 13.47423,-1.1129 21.38505,-2.63666 3.794547,-0.73089 7.032297,-1.03314 10.083007,-0.68271 3.02494,0.34747 5.39738,1.28437 7.59679,2.49849 2.14492,1.18403 3.94954,2.52826 5.64796,3.40433 1.7417,0.8984 3.2625,1.24099 4.82092,0.92529 3.01942,-0.61166 5.44734,-3.6244 5.44734,-3.6244 a 0.34683474,0.34683474 0 1 0 -0.53531,-0.44115 c 0,0 -2.40496,2.85025 -5.04918,3.38591 -1.38043,0.27964 -2.70389,-0.005 -4.36545,-0.86183 -1.61785,-0.83451 -3.43718,-2.18377 -5.63158,-3.39512 -2.2524,-1.24338 -4.72765,-2.2214 -7.85268,-2.58037 -1.57535,-0.18096 -3.19004,-0.19211 -4.89053,-0.0665 z m 0.35722,1.9908 c -1.71783,0.14336 -3.52655,0.42486 -5.470877,0.8127 -8.09455,1.61464 -15.43998,4.21492 -21.375842,2.73288 a 0.34717589,0.34717589 0 1 0 -0.168885,0.6735 c 6.246507,1.5596 13.648587,-1.12371 21.679834,-2.72571 3.85315,-0.7686 7.1285,-1.10764 10.1874,-0.78609 3.03192,0.31871 5.38075,1.23853 7.53436,2.44833 2.10059,1.18001 3.84498,2.53505 5.48726,3.43402 1.6849,0.92228 3.15862,1.2979 4.68889,1.01638 2.96174,-0.54486 5.4023,-3.49952 5.40231,-3.49952 a 0.34677691,0.34677691 0 1 0 -0.52918,-0.44831 c 0,0 -2.42241,2.79111 -4.99903,3.26513 -1.34823,0.24803 -2.623,-0.0618 -4.23033,-0.94167 -1.5645,-0.85638 -3.32557,-2.21962 -5.4801,-3.42992 -2.21103,-1.24206 -4.66808,-2.20391 -7.8015,-2.53329 -1.58013,-0.16611 -3.20648,-0.16178 -4.92431,-0.0185 z m 5.20169,2.0123 c -3.16739,-0.29967 -6.54172,0.0834 -10.47298,0.88538 -8.181457,1.66904 -15.645197,4.28176 -21.575429,2.78303 a 0.34680629,0.34680629 0 1 0 -0.169909,0.67248 c 6.244921,1.57826 13.762181,-1.1191 21.883518,-2.77588 3.89737,-0.79507 7.20317,-1.1642 10.26929,-0.87411 3.0382,0.28745 5.3699,1.17959 7.48932,2.37055 2.06749,1.16177 3.76504,2.50932 5.36546,3.41866 1.64275,0.93338 3.08043,1.33504 4.59063,1.09008 2.91976,-0.47358 5.37876,-3.33678 5.37876,-3.33678 a 0.34668584,0.34668584 0 1 0 -0.52099,-0.45753 c 0,0 -2.4375,2.70008 -4.96832,3.11058 -1.32705,0.21525 -2.56898,-0.11819 -4.13719,-1.00922 -1.52583,-0.86696 -3.24341,-2.22656 -5.36853,-3.42071 -2.18046,-1.22526 -4.62395,-2.15947 -7.76363,-2.45653 z m 0.15558,2.0512 c -3.17198,-0.26511 -6.56383,0.14181 -10.52211,0.95805 -8.235607,1.69827 -15.771447,4.28964 -21.680855,2.79429 a 0.34667731,0.34667731 0 1 0 -0.170933,0.67145 c 6.225001,1.57521 13.813221,-1.09955 21.992018,-2.7861 3.9261,-0.80961 7.25133,-1.20356 10.32354,-0.94679 3.04362,0.25438 5.36601,1.10915 7.46373,2.26717 2.04651,1.12974 3.71476,2.45446 5.28869,3.36134 1.61642,0.93135 3.02967,1.35129 4.52819,1.14433 2.89411,-0.39971 5.37467,-3.14026 5.37467,-3.14026 a 0.34667731,0.34667731 0 1 0 -0.50871,-0.47083 c 0,0 -2.45271,2.57784 -4.96115,2.92429 -1.31759,0.18197 -2.54188,-0.16703 -4.08704,-1.05733 -1.50279,-0.86589 -3.19302,-2.20541 -5.29995,-3.36851 -2.16147,-1.19321 -4.59644,-2.08835 -7.74009,-2.3511 z m 0.0307,2.10954 c -3.17399,-0.2293 -6.57253,0.19535 -10.54156,1.01332 -8.255547,1.70135 -15.819327,4.23531 -21.693139,2.76359 a 0.34667731,0.34667731 0 1 0 -0.168885,0.67247 c 6.187027,1.55021 13.800127,-1.06711 22.002254,-2.75745 3.93862,-0.8117 7.27408,-1.22231 10.35117,-1.00001 3.04812,0.22022 5.36741,1.02971 7.45657,2.14127 2.03833,1.08452 3.69548,2.36849 5.25901,3.26001 1.60662,0.91609 3.00721,1.34667 4.5026,1.17811 2.88503,-0.3252 5.39002,-2.91405 5.39002,-2.91405 a 0.34668686,0.34668686 0 1 0 -0.49233,-0.48824 c 0,0 -2.46513,2.42945 -4.97548,2.71241 -1.32023,0.14882 -2.54203,-0.21262 -4.0809,-1.09008 -1.49601,-0.85302 -3.17592,-2.15265 -5.2764,-3.27024 -2.15457,-1.14636 -4.58764,-1.99387 -7.73293,-2.22111 z m -0.0962,2.17096 c -3.17346,-0.19307 -6.56919,0.23916 -10.53234,1.04606 -8.240577,1.67778 -15.783957,4.12204 -21.608186,2.69399 a 0.34668369,0.34668369 0 1 0 -0.164791,0.6735 c 6.13161,1.50341 13.72155,-1.02024 21.912177,-2.68785 3.9346,-0.80109 7.27044,-1.22121 10.35117,-1.03379 3.05166,0.18565 5.37668,0.94041 7.4709,1.99286 2.04341,1.0269 3.70696,2.25536 5.27641,3.11876 1.61367,0.88772 3.0141,1.31913 4.51489,1.18834 2.89254,-0.25209 5.42379,-2.66123 5.42379,-2.66123 a 0.34667731,0.34667731 0 1 0 -0.47288,-0.50666 c 0,0 -2.47472,2.25592 -5.01131,2.47699 -1.33493,0.11634 -2.57006,-0.25185 -4.11978,-1.10441 -1.50585,-0.8284 -3.19389,-2.07264 -5.29996,-3.13104 -2.16,-1.0855 -4.59542,-1.87422 -7.74009,-2.06552 z m -0.22006,2.23134 c -3.17054,-0.1572 -6.55376,0.27532 -10.49447,1.05835 -8.190807,1.62754 -15.666217,3.94927 -21.428043,2.58446 a 0.34719999,0.34719999 0 1 0 -0.160697,0.67555 c 6.059743,1.43538 13.579463,-0.96103 21.72384,-2.57935 3.91406,-0.77774 7.24135,-1.19894 10.32457,-1.04607 3.05427,0.15142 5.3936,0.84437 7.50672,1.82601 2.06196,0.95787 3.74927,2.11568 5.34089,2.93862 1.63747,0.84665 3.05044,1.26973 4.56504,1.17504 2.91643,-0.18235 5.47395,-2.38795 5.47395,-2.38795 a 0.34667731,0.34667731 0 1 0 -0.44832,-0.52815 c 0,0 -2.48231,2.06247 -5.06862,2.22417 -1.36129,0.0851 -2.62591,-0.28348 -4.20373,-1.09929 -1.53236,-0.79231 -3.24377,-1.96433 -5.3675,-2.9509 -2.17784,-1.0117 -4.62174,-1.73473 -7.76363,-1.89049 z m -0.34084,2.29275 c -3.16551,-0.12251 -6.52586,0.30053 -10.427947,1.04709 -8.10708,1.55108 -15.46966,3.71993 -21.15782,2.43707 a 0.34677297,0.34677297 0 1 0 -0.152509,0.67657 c 5.972759,1.34704 13.376029,-0.88906 21.440319,-2.43195 3.877407,-0.74185 7.186667,-1.15625 10.271337,-1.03686 3.05611,0.11827 5.41515,0.74453 7.56097,1.64485 2.38424,1.00035 3.97821,1.98418 5.44837,2.71855 1.47016,0.73437 2.8358,1.21594 4.65818,1.1433 2.95619,-0.11782 5.53741,-2.0993 5.53741,-2.0993 a 0.34708891,0.34708891 0 1 0 -0.41863,-0.55374 c 0,0 -2.48759,1.85417 -5.14539,1.9601 -1.68986,0.0673 -2.8954,-0.3578 -4.32246,-1.07063 -1.42706,-0.71284 -3.05728,-1.7176 -5.48931,-2.738 -2.20788,-0.92636 -4.66531,-1.57564 -7.80252,-1.69705 z m -0.44832,2.35314 c -2.89275,-0.0779 -6.20044,0.26132 -10.340937,1.01229 -7.99106,1.44938 -15.19647,3.43619 -20.801628,2.25284 a 0.34668359,0.34668359 0 1 0 -0.142273,0.67861 c 5.872371,1.23977 13.115721,-0.80747 21.067751,-2.24976 8.226087,-1.492 12.993437,-1.34067 17.830267,0.44627 2.44699,0.90403 4.09075,1.79694 5.60598,2.46983 1.51524,0.67289 2.91586,1.12224 4.78101,1.08496 3.01097,-0.0602 5.60804,-1.80247 5.60804,-1.80247 a 0.34667731,0.34667731 0 1 0 -0.38281,-0.57729 c 0,0 -2.49097,1.63189 -5.23956,1.68682 -1.74916,0.0349 -3.00855,-0.36984 -4.4852,-1.0256 -1.47665,-0.65576 -3.15653,-1.56678 -5.64795,-2.48723 -2.48249,-0.91714 -4.95993,-1.41134 -7.85269,-1.48927 z m -0.55886,2.40535 c -2.88537,-0.0511 -6.15403,0.27037 -10.223227,0.95702 -7.84516,1.32382 -14.85051,3.10362 -20.365595,2.03584 a 0.34667731,0.34667731 0 1 0 -0.132039,0.68066 c 5.760664,1.11533 12.803244,-0.71488 20.613294,-2.03277 8.088687,-1.36491 12.863117,-1.27099 17.825147,0.29785 2.52569,0.79856 4.23496,1.58994 5.80763,2.19245 1.57266,0.60252 3.01844,1.01291 4.93556,1.00615 3.07943,-0.0109 5.68583,-1.50257 5.68583,-1.50257 a 0.34667731,0.34667731 0 1 0 -0.34187,-0.60287 c 0,0 -2.49046,1.40139 -5.34601,1.41147 -1.8186,0.006 -3.14651,-0.36933 -4.68581,-0.95907 -1.53931,-0.58973 -3.28094,-1.39561 -5.84653,-2.20677 -2.53862,-0.80264 -5.04101,-1.2263 -7.92638,-1.27739 z m -0.64893,2.45755 c -2.87734,-0.0277 -6.09971,0.26835 -10.084027,0.87922 -7.67259,1.17637 -14.4425,2.72813 -19.86303,1.7902 a 0.34667731,0.34667731 0 1 0 -0.117709,0.6827 c 5.640139,0.97594 12.444569,-0.61653 20.086169,-1.78814 7.924527,-1.21498 12.706467,-1.17031 17.818997,0.16787 2.62008,0.68578 4.4074,1.36893 6.04817,1.89356 1.64077,0.52464 3.14082,0.88781 5.11878,0.90584 3.15966,0.0288 5.76566,-1.20676 5.76566,-1.20676 a 0.34683732,0.34683732 0 1 0 -0.29581,-0.62744 c 0,0 -2.48766,1.1684 -5.46269,1.14126 -1.89714,-0.0173 -3.30187,-0.35726 -4.91509,-0.87309 -1.61322,-0.51582 -3.42952,-1.21004 -6.08399,-1.90482 -2.60603,-0.68212 -5.13809,-1.03273 -8.01543,-1.0604 z m -0.72365,2.50463 c -2.86931,-0.008 -6.03973,0.25411 -9.927427,0.77891 -7.4773,1.00938 -13.97878,2.31487 -19.303145,1.51896 a 0.34676533,0.34676533 0 1 0 -0.103379,0.68578 c 5.513764,0.82422 12.047944,-0.51214 19.498644,-1.51793 7.737327,-1.04449 12.529397,-1.04127 17.814917,0.0583 5.46001,1.13591 7.55624,2.29379 11.65108,2.36645 3.24908,0.0577 5.84038,-0.92529 5.84038,-0.92529 a 0.34693522,0.34693522 0 1 0 -0.24565,-0.64893 c 0,0 -2.47948,0.93633 -5.58245,0.88128 -3.96776,-0.0704 -6.00554,-1.20444 -11.52212,-2.35212 -2.68374,-0.55834 -5.25154,-0.83706 -8.12085,-0.84545 z m -0.77995,2.54454 c -2.862,0.006 -5.97701,0.22826 -9.758537,0.65814 -7.26405,0.82578 -13.47163,1.8724 -18.701297,1.22827 a 0.34703619,0.34703619 0 1 0 -0.08496,0.68885 c 5.384967,0.66326 11.622907,-0.40498 18.865077,-1.22826 7.531557,-0.85619 12.336297,-0.88211 17.813887,-0.0235 5.71165,0.89524 7.93185,1.81009 12.18332,1.90482 3.34446,0.0745 5.90692,-0.66428 5.90692,-0.66428 a 0.34667731,0.34667731 0 1 0 -0.1914,-0.66633 c 0,0 -2.46529,0.70975 -5.70016,0.63767 -4.15701,-0.0926 -6.33571,-0.99453 -12.09121,-1.89664 -2.77064,-0.43427 -5.37963,-0.6447 -8.24164,-0.6387 z m -0.81474,2.57833 c -2.85622,0.0148 -5.91304,0.19013 -9.581467,0.51792 -7.03832,0.62889 -12.93418,1.40963 -18.073863,0.92426 a 0.34667731,0.34667731 0 1 0 -0.06448,0.68988 c 5.257663,0.49651 11.178253,-0.29586 18.199753,-0.92325 7.312527,-0.65339 12.137167,-0.69678 17.822077,-0.0757 5.06835,0.55368 9.29853,1.34831 12.75038,1.42683 3.44187,0.0783 5.96014,-0.43296 5.96014,-0.43296 a 0.34677248,0.34677248 0 1 0 -0.13818,-0.67964 c 0,0 -2.44075,0.49622 -5.80661,0.41966 -3.35741,-0.0764 -7.59318,-0.86583 -12.69101,-1.42274 -2.86531,-0.31302 -5.52053,-0.45902 -8.37674,-0.44422 z m -0.82498,2.60391 c -2.85281,0.0172 -5.851917,0.13877 -9.403367,0.35927 -6.80629,0.42259 -12.37953,0.9359 -17.437218,0.6131 a 0.34667731,0.34667731 0 1 0 -0.04401,0.69193 c 5.136278,0.3278 10.729348,-0.19123 17.524218,-0.61311 7.086287,-0.43997 11.936117,-0.48487 17.839467,-0.0911 5.26979,0.35151 9.79653,0.87374 13.33892,0.94167 3.53683,0.0678 5.99289,-0.23951 5.99289,-0.23951 a 0.34667731,0.34667731 0 1 0 -0.086,-0.68783 c 0,0 -2.40294,0.30134 -5.8936,0.2344 -3.48521,-0.0669 -8.01727,-0.58786 -13.30617,-0.94064 -2.96607,-0.19785 -5.67235,-0.28543 -8.52515,-0.26818 z m -0.80861,2.61927 c -2.85266,0.0126 -5.796267,0.076 -9.230387,0.18628 -6.57421,0.21117 -11.82646,0.46097 -16.812847,0.30093 a 0.34667731,0.34667731 0 1 0 -0.0215,0.69295 c 5.025037,0.16127 10.288387,-0.09 16.856867,-0.30093 6.859827,-0.22033 11.743647,-0.25256 17.872217,-0.0686 5.47859,0.16447 10.3052,0.41961 13.93156,0.46162 3.62417,0.042 6.00108,-0.0931 6.00108,-0.0931 a 0.34667731,0.34667731 0 1 0 -0.0399,-0.69192 c 0,0 -2.34943,0.13387 -5.95298,0.0921 -3.60089,-0.0417 -8.43141,-0.29687 -13.91927,-0.46162 -3.07103,-0.0922 -5.83217,-0.13031 -8.68483,-0.11771 z m -26.05347,2.62132 a 0.34698457,0.34698457 0 1 0 -0.001,0.69396 c 18.218043,0.005 54.63102,0 54.63102,0 a 0.34698417,0.34698417 0 1 0 0,-0.69396 c 0,0 -36.412357,0.005 -54.629996,0 z"
       id="path4580"
       inkscape:connector-curvature="0" />
    <text
       xml:space="preserve"
       style="font-style:normal;font-weight:normal;font-size:4.58611107px;line-height:1.25;font-family:sans-serif;letter-spacing:0px;word-spacing:0px;fill:#999999;fill-opacity:1;stroke:none;stroke-width:0.26458332"
       x="47.095829"
       y="173.17499"
       id="text4590"><tspan
         sodipodi:role="line"
         id="tspan4588"
         x="47.095829"
         y="173.17499"
         style="fill:#999999;stroke-width:0.26458332">https://www.youtube.com/watch?v=evhR9k1lr4k</tspan></text>
  </g>
</svg>
